<svg width="0" height="0" class="hidden">
  <symbol xmlns="http://www.w3.org/2000/svg" id="close" viewBox="0 0 13 14">
    <path id="Vector 68" d="M1 12.5L12 1.5" stroke="white" stroke-width="1.5"/>
    <path id="Vector 69" d="M1 1.5L12 12.5" stroke="white" stroke-width="1.5"/>
  </symbol>

  <symbol viewBox="0 0 18 18" xmlns="http://www.w3.org/2000/svg" id="marker">
    <path fill-rule="evenodd" clip-rule="evenodd" d="M9.00007 0C13.1241 0 16.4682 3.27022 16.4682 7.30362C16.4682 10.123 14.8347 12.5694 12.4418 13.7867L9.00007 18L5.55829 13.7867C3.16621 12.5695 1.53198 10.1232 1.53198 7.30362C1.53198 3.27041 4.87584 0 9.00007 0ZM11.8016 7.30362C11.8016 5.79776 10.5404 4.56355 8.99982 4.56355C7.46006 4.56355 6.19805 5.79699 6.19805 7.30362C6.19805 8.80947 7.45927 10.0437 8.99982 10.0437C10.5396 10.0437 11.8016 8.81024 11.8016 7.30362Z" />
  </symbol>

  <symbol fill="none" viewBox="0 0 8 6" xmlns="http://www.w3.org/2000/svg" id="pointer">
    <path d="M1 1.5L4 4.5L7 1.5" stroke="#E72922" stroke-width="1.5"/>
  </symbol>

  <symbol viewBox="0 0 18 18" xmlns="http://www.w3.org/2000/svg" id="search">
    <path d="M14.2049 12.952L18 16.7462L16.7462 18L12.952 14.2049C11.5402 15.3366 9.78419 15.9522 7.9748 15.9496C3.57271 15.9496 0 12.3769 0 7.9748C0 3.57271 3.57271 0 7.9748 0C12.3769 0 15.9496 3.57271 15.9496 7.9748C15.9522 9.78419 15.3366 11.5402 14.2049 12.952ZM12.4274 12.2945C13.5519 11.138 14.18 9.58786 14.1774 7.9748C14.1774 4.54741 11.4013 1.77218 7.9748 1.77218C4.54741 1.77218 1.77218 4.54741 1.77218 7.9748C1.77218 11.4013 4.54741 14.1774 7.9748 14.1774C9.58786 14.18 11.138 13.5519 12.2945 12.4274L12.4274 12.2945Z" />
  </symbol>

  <symbol viewBox="0 0 11 12" xmlns="http://www.w3.org/2000/svg" id="catalogue">
    <rect id="Rectangle 308" y="7.5" width="4" height="4" />
    <rect id="Rectangle 310" y="0.5" width="4" height="4" />
    <rect id="Rectangle 309" x="7" y="7.5" width="4" height="4" />
    <rect id="Rectangle 311" x="7" y="0.5" width="4" height="4" />
  </symbol>

  <symbol id="cart" viewBox="0 0 16 16" xmlns="http://www.w3.org/2000/svg">
    <path d="M4.80444 16C4.36403 16 3.98688 15.8432 3.67299 15.5296C3.3591 15.216 3.20243 14.8395 3.20296 14.4C3.20296 13.96 3.3599 13.5832 3.67379 13.2696C3.98768 12.956 4.36457 12.7995 4.80444 12.8C5.24485 12.8 5.62199 12.9568 5.93588 13.2704C6.24977 13.584 6.40645 13.9605 6.40592 14.4C6.40592 14.84 6.24897 15.2168 5.93508 15.5304C5.62119 15.844 5.24431 16.0005 4.80444 16ZM12.8118 16C12.3714 16 11.9943 15.8432 11.6804 15.5296C11.3665 15.216 11.2098 14.8395 11.2104 14.4C11.2104 13.96 11.3673 13.5832 11.6812 13.2696C11.9951 12.956 12.372 12.7995 12.8118 12.8C13.2522 12.8 13.6294 12.9568 13.9433 13.2704C14.2572 13.584 14.4139 13.9605 14.4133 14.4C14.4133 14.84 14.2564 15.2168 13.9425 15.5304C13.6286 15.844 13.2517 16.0005 12.8118 16ZM3.36311 1.6H15.174C15.481 1.6 15.7145 1.7368 15.8747 2.0104C16.0348 2.284 16.0415 2.56053 15.8947 2.84L13.0521 7.96C12.9053 8.22667 12.7083 8.43333 12.4611 8.58C12.214 8.72667 11.9438 8.8 11.6508 8.8H5.68525L4.80444 10.4H14.4133V12H4.80444C4.20388 12 3.75013 11.7365 3.44318 11.2096C3.13623 10.6827 3.12289 10.1595 3.40314 9.64L4.48414 7.68L1.60148 1.6H0V0H2.6024L3.36311 1.6Z" />
  </symbol>
  
  <symbol viewBox="0 0 16 16" id="vk" xmlns="http://www.w3.org/2000/svg">
    <path d="M14.3353 12.2536H12.8147C12.2393 12.2536 12.066 11.7876 11.0347 10.7556C10.1333 9.88691 9.75267 9.7789 9.52467 9.7789C9.20933 9.7789 9.12333 9.86557 9.12333 10.2996V11.6676C9.12333 12.0376 9.00333 12.2542 8.03667 12.2542C7.09886 12.1912 6.18944 11.9063 5.38331 11.423C4.57718 10.9397 3.89742 10.2718 3.4 9.47424C2.21892 8.00425 1.39714 6.27896 1 4.43557C1 4.20757 1.08667 4.0009 1.52133 4.0009H3.04133C3.432 4.0009 3.57267 4.1749 3.726 4.5769C4.464 6.7489 5.72333 8.63824 6.23467 8.63824C6.43067 8.63824 6.516 8.55157 6.516 8.0629V5.82557C6.45133 4.8049 5.90933 4.7189 5.90933 4.34957C5.91619 4.25213 5.96076 4.1612 6.03358 4.0961C6.1064 4.031 6.20174 3.99685 6.29933 4.0009H8.68867C9.01533 4.0009 9.12333 4.16357 9.12333 4.55424V7.57424C9.12333 7.90024 9.26333 8.00824 9.362 8.00824C9.558 8.00824 9.70867 7.90024 10.068 7.54157C10.8382 6.60223 11.4675 5.55568 11.936 4.4349C11.984 4.30034 12.0746 4.18515 12.1941 4.10692C12.3137 4.02868 12.4555 3.99168 12.598 4.00157H14.1187C14.5747 4.00157 14.6713 4.22957 14.5747 4.5549C14.0216 5.79385 13.3372 6.96991 12.5333 8.0629C12.3693 8.3129 12.304 8.4429 12.5333 8.73624C12.684 8.96424 13.2173 9.40957 13.5753 9.8329C14.0967 10.3529 14.5293 10.9542 14.8567 11.6129C14.9873 12.0369 14.7693 12.2536 14.3353 12.2536Z" />
  </symbol>

  <symbol viewBox="0 0 16 16" id="telegram" xmlns="http://www.w3.org/2000/svg">
    <path fill-rule="evenodd" clip-rule="evenodd" d="M12.1846 1.95331C12.3493 1.88397 12.5297 1.86006 12.7068 1.88405C12.8839 1.90805 13.0514 1.97909 13.1917 2.08977C13.3321 2.20044 13.4402 2.34672 13.5048 2.51337C13.5695 2.68001 13.5883 2.86094 13.5593 3.03731L12.0473 12.2086C11.9006 13.0933 10.9299 13.6006 10.1186 13.16C9.43993 12.7913 8.43193 12.2233 7.52527 11.6306C7.07193 11.334 5.68327 10.384 5.85393 9.70798C6.0006 9.12998 8.33393 6.95798 9.66726 5.66664C10.1906 5.15931 9.95193 4.86664 9.33393 5.33331C7.7986 6.49198 5.33527 8.25398 4.5206 8.74998C3.80193 9.18731 3.42726 9.26198 2.97926 9.18731C2.16193 9.05131 1.40393 8.84064 0.785265 8.58398C-0.0507349 8.23731 -0.0100682 7.08798 0.784598 6.75331L12.1846 1.95331Z" />
  </symbol>

  <symbol viewBox="0 0 16 16" id="youtube" xmlns="http://www.w3.org/2000/svg">
    <path d="M6.6 10.1429L10.233 8L6.6 5.85714V10.1429ZM14.692 4.55C14.783 4.88571 14.846 5.33571 14.888 5.90714C14.937 6.47857 14.958 6.97143 14.958 7.4L15 8C15 9.56429 14.888 10.7143 14.692 11.45C14.517 12.0929 14.111 12.5071 13.481 12.6857C13.152 12.7786 12.55 12.8429 11.626 12.8857C10.716 12.9357 9.883 12.9571 9.113 12.9571L8 13C5.067 13 3.24 12.8857 2.519 12.6857C1.889 12.5071 1.483 12.0929 1.308 11.45C1.217 11.1143 1.154 10.6643 1.112 10.0929C1.063 9.52143 1.042 9.02857 1.042 8.6L1 8C1 6.43571 1.112 5.28571 1.308 4.55C1.483 3.90714 1.889 3.49286 2.519 3.31429C2.848 3.22143 3.45 3.15714 4.374 3.11429C5.284 3.06429 6.117 3.04286 6.887 3.04286L8 3C10.933 3 12.76 3.11429 13.481 3.31429C14.111 3.49286 14.517 3.90714 14.692 4.55Z" />
  </symbol>

  <symbol viewBox="0 0 109 30" id="accent" xmlns="http://www.w3.org/2000/svg">
    <path id="Vector" d="M31.7584 23.6702L31.7349 23.6937V26.9397L31.7584 26.9631H32.7565C33.7687 26.9631 34.4984 26.234 34.4984 25.3167C34.4984 24.3994 33.7687 23.6702 32.7565 23.6702H31.7584ZM32.0974 24.0325H32.7565C33.5239 24.0325 34.0795 24.5969 34.0795 25.3167C34.0795 26.0364 33.5239 26.6009 32.7565 26.6009H32.0974V24.0325ZM35.6452 23.6702L35.6217 23.6937V26.9397L35.6452 26.9631H35.9607L35.9842 26.9397V23.6937L35.9607 23.6702H35.6452ZM40.0897 24.3194V23.9054C39.7836 23.6749 39.36 23.5996 38.9127 23.5996C37.9005 23.5996 37.1236 24.3758 37.1236 25.3167C37.1236 26.281 37.924 27.0337 38.9362 27.0337C39.36 27.0337 39.7836 26.9161 40.1367 26.6574V25.1803L40.1132 25.1567H39.0304L39.0069 25.1803V25.5001L39.0304 25.5237H39.7742V26.441C39.5247 26.5868 39.2093 26.6527 38.9362 26.6527C38.1453 26.6527 37.538 26.074 37.538 25.3167C37.538 24.5734 38.1217 23.9807 38.9127 23.9807C39.3128 23.9807 39.7507 24.0653 40.0661 24.3429L40.0897 24.3194ZM41.3913 23.6702L41.3678 23.6937V26.9397L41.3913 26.9631H41.7068L41.7303 26.9397V23.6937L41.7068 23.6702H41.3913ZM42.7709 23.6702L42.7474 23.6937V24.0089L42.7709 24.0325H43.882V26.9397L43.9055 26.9631H44.2257L44.2492 26.9397V24.0325H45.3603L45.3838 24.0089V23.6937L45.3603 23.6702H42.7709ZM46.8385 23.6702L46.815 23.6937L45.5062 26.9397L45.5298 26.9631H45.8782L45.9017 26.9397L46.2501 26.0788H47.7566L48.1097 26.9397L48.1333 26.9631H48.4816L48.5052 26.9397L47.1917 23.6937L47.1682 23.6702H46.8385ZM47.0033 24.1688L47.6154 25.7166H46.396L47.0033 24.1688ZM49.4748 23.6702L49.4559 23.689V26.9443L49.4748 26.9631H51.3532L51.3721 26.9443V26.6245L51.3532 26.6009H49.8185V23.689L49.7996 23.6702H49.4748ZM52.2256 25.6742L52.2021 25.6977V26.0176L52.2256 26.0412H53.6851L53.7086 26.0176V25.6977L53.6851 25.6742H52.2256ZM55.7773 23.6702L55.7537 23.6937L54.4449 26.9397L54.4685 26.9631H54.8168L54.8404 26.9397L55.1888 26.0788H56.6953L57.0484 26.9397L57.0719 26.9631H57.4204L57.4438 26.9397L56.1304 23.6937L56.1068 23.6702H55.7773ZM55.9421 24.1688L56.5541 25.7166H55.3347L55.9421 24.1688ZM58.4182 23.6702L58.3946 23.6937V26.9397L58.4182 26.9631H58.7336L58.7571 26.9397V24.0325H60.2872L60.3107 24.0089V23.6937L60.2872 23.6702H58.4182ZM61.3533 23.6702L61.3297 23.6937V26.9397L61.3533 26.9631H63.3636L63.3872 26.9397V26.6245L63.3636 26.6009H61.6922V25.3355H62.8457L62.8692 25.312V24.9921L62.8457 24.9686H61.6922V24.0325H63.2224L63.2459 24.0089V23.6937L63.2224 23.6702H61.3533ZM64.4769 23.6702L64.4534 23.6937V26.9397L64.4769 26.9631H64.7923L64.8159 26.9397V25.3355H66.7132V26.9397L66.7367 26.9631H67.052L67.0755 26.9397V23.6937L67.052 23.6702H66.7367L66.7132 23.6937V24.9686H64.8159V23.6937L64.7923 23.6702H64.4769ZM68.1139 23.6702L68.0904 23.6937V24.0089L68.1139 24.0325H69.2248V26.9397L69.2483 26.9631H69.5688L69.5923 26.9397V24.0325H70.7031L70.7266 24.0089V23.6937L70.7031 23.6702H68.1139ZM74.0704 24.3664V23.9524C73.7643 23.7313 73.3877 23.5996 72.9406 23.5996C71.9752 23.5996 71.1985 24.3758 71.1985 25.3167C71.1985 26.2575 71.9752 27.0337 72.9406 27.0337C73.3877 27.0337 73.7643 26.902 74.0704 26.6809V26.2669L74.0469 26.2434C73.7316 26.5021 73.3407 26.6527 72.9406 26.6527C72.2109 26.6527 71.613 26.0599 71.613 25.3167C71.613 24.5734 72.2109 23.9807 72.9406 23.9807C73.3407 23.9807 73.7316 24.1312 74.0469 24.39L74.0704 24.3664ZM75.0142 23.6702L74.9907 23.6937V24.0089L75.0142 24.0325H76.1251V26.9397L76.1486 26.9631H76.469L76.4925 26.9397V24.0325H77.6034L77.6269 24.0089V23.6937L77.6034 23.6702H75.0142ZM78.668 23.6702L78.6445 23.6937V26.9397L78.668 26.9631H79.7417C80.3767 26.9631 80.848 26.535 80.848 25.9706C80.848 25.5566 80.6124 25.2179 80.0993 25.0768C80.3062 24.9591 80.4472 24.7757 80.4472 24.4982C80.4472 23.9995 80.0758 23.6702 79.4166 23.6702H78.668ZM79.0067 24.0325H79.4166C79.8448 24.0325 80.0334 24.2112 80.0334 24.4982C80.0334 24.8228 79.8024 24.9921 79.4166 24.9921H79.0067V24.0325ZM79.0067 25.359H79.7417C80.1653 25.359 80.4335 25.6131 80.4335 25.9706C80.4335 26.3469 80.1653 26.6009 79.7417 26.6009H79.0067V25.359ZM83.5253 23.5996C82.5646 23.5996 81.7833 24.3711 81.7833 25.3167C81.7833 26.2622 82.5646 27.0337 83.5253 27.0337C84.4854 27.0337 85.2667 26.2622 85.2667 25.3167C85.2667 24.3711 84.4854 23.5996 83.5253 23.5996ZM83.5253 23.9807C84.255 23.9807 84.8477 24.5781 84.8477 25.3167C84.8477 26.0552 84.255 26.6527 83.5253 26.6527C82.7956 26.6527 82.1971 26.0552 82.1971 25.3167C82.1971 24.5781 82.7956 23.9807 83.5253 23.9807Z" fill="white"/>
    <path id="Vector_2" fill-rule="evenodd" clip-rule="evenodd" d="M12.0749 2.60938C13.3808 2.60938 14.6382 2.81651 15.8162 3.1997L13.5299 7.25174H16.2319L17.9317 4.1212C21.6402 6.18045 24.1497 10.1347 24.1497 14.6746C24.1497 21.338 18.7436 26.7398 12.0749 26.7398C5.40609 26.7398 0 21.338 0 14.6746C0 8.01114 5.40609 2.60938 12.0749 2.60938ZM10.9476 9.47892L11.0172 9.40953H12.9626L13.032 9.47892L16.7145 19.0595L16.645 19.1289H14.4911L14.4216 19.0595L13.7268 17.1156H10.2529L9.55806 19.0595L9.48855 19.1289H7.33472L7.26521 19.0595L10.9476 9.47892ZM13.1015 15.1717L11.9899 11.9088L10.8782 15.1717H13.1015Z" fill="white"/>
    <path id="Vector_3" d="M34.8317 2.60938C35.9699 2.60938 36.8404 2.87548 37.4434 3.40741C38.0462 3.93935 38.3479 4.7422 38.3479 5.81544V10.2362H36.6403V9.31816C36.4184 9.6477 36.1025 9.89951 35.6926 10.0737C35.2826 10.248 34.7882 10.3351 34.2094 10.3351C33.6306 10.3351 33.1243 10.2386 32.6902 10.0456C32.2561 9.85248 31.921 9.58411 31.6845 9.24048C31.4482 8.89672 31.3301 8.50848 31.3301 8.07518C31.3301 7.39731 31.588 6.85359 32.1041 6.44391C32.6203 6.0344 33.4331 5.82963 34.5422 5.82963H36.5391V5.7166C36.5391 5.18935 36.3775 4.78452 36.0542 4.50195C35.7311 4.21951 35.2512 4.07822 34.6146 4.07822C34.1805 4.07822 33.7537 4.14424 33.334 4.27602C32.9144 4.4078 32.56 4.5914 32.2706 4.82684L31.5615 3.5416C31.9667 3.24028 32.4539 3.00953 33.023 2.84962C33.5922 2.68946 34.1949 2.60938 34.8317 2.60938ZM34.5857 9.04972C35.039 9.04972 35.4418 8.94851 35.7939 8.74614C36.1461 8.5437 36.3943 8.25414 36.5391 7.87757V7.00183H34.6725C33.6306 7.00183 33.1098 7.3362 33.1098 8.00468C33.1098 8.3247 33.24 8.57905 33.5004 8.76733C33.7608 8.95561 34.1228 9.04972 34.5857 9.04972ZM43.8027 7.21372H42.3991V10.2362H40.5906V2.69429H42.3991V5.74486H43.846L46.1323 2.69429H48.0712L45.2641 6.32394L48.2593 10.2362H46.1323L43.8027 7.21372ZM57.7459 8.73903L58.2793 10.2262L56.3189 10.2362H49.5325V2.69429H51.3412V8.73903H55.0309V2.69429H56.8395V8.73903H57.7459ZM66.8523 6.50752C66.8523 6.62996 66.8432 6.80422 66.8236 7.03014H60.7609C60.8669 7.58579 61.1445 8.02581 61.5929 8.35072C62.0414 8.67557 62.5987 8.83803 63.2641 8.83803C64.1128 8.83803 64.8121 8.56483 65.3622 8.01883L66.3315 9.10627C65.9842 9.51127 65.5456 9.81714 65.0147 10.0244C64.4841 10.2315 63.8863 10.3351 63.2208 10.3351C62.3716 10.3351 61.624 10.1702 60.9779 9.84068C60.3313 9.51127 59.8323 9.0522 59.4804 8.46368C59.128 7.87529 58.9521 7.20903 58.9521 6.46509C58.9521 5.73067 59.1235 5.06923 59.466 4.48079C59.8079 3.89234 60.283 3.43325 60.8908 3.10368C61.4985 2.77423 62.1835 2.60938 62.9455 2.60938C63.6982 2.60938 64.3709 2.77182 64.9642 3.09658C65.5574 3.42161 66.0202 3.87814 66.3537 4.46672C66.6859 5.05517 66.8523 5.73549 66.8523 6.50752ZM62.9455 4.02184C62.3666 4.02184 61.8771 4.18897 61.4769 4.52311C61.0767 4.8575 60.8331 5.30239 60.7464 5.85789H65.1307C65.053 5.31176 64.8171 4.86916 64.4214 4.5302C64.0262 4.19125 63.5338 4.02184 62.9455 4.02184ZM68.8346 2.69429H70.6432V5.75906H74.5352V2.69429H76.3445V10.2362H74.5352V7.25611H70.6432V10.2362H68.8346V2.69429ZM84.9013 4.19125H82.19V10.2362H80.3807V4.19125H77.661V2.69429H84.8902L84.9013 4.19125Z" fill="white"/>
    <path id="Vector_4" d="M106.719 19.8199H104.236L106.519 13.8652H109.003L106.719 19.8199Z" fill="white"/>
    <path id="Vector_5" d="M31.8857 13.7494H33.4893V15.9125H35.91V13.7494H37.5239V19.2914H35.91V17.2208H33.4893V19.2914H31.8857V13.7494ZM41.2276 13.667C42.0897 13.667 42.7519 13.8713 43.214 14.2799C43.6762 14.6885 43.9071 15.3048 43.9071 16.1289V19.2914H42.3967V18.6012C42.0932 19.1162 41.5276 19.3737 40.7 19.3737C40.2725 19.3737 39.9018 19.3016 39.5879 19.1574C39.2741 19.0132 39.0344 18.8141 38.8689 18.5599C38.7035 18.3059 38.6206 18.0175 38.6206 17.6947C38.6206 17.1796 38.8155 16.7744 39.2052 16.4791C39.5949 16.1838 40.1966 16.0362 41.0104 16.0362H42.2932C42.2932 15.6861 42.1864 15.4164 41.9725 15.2277C41.7586 15.0387 41.4379 14.9443 41.0104 14.9443C40.7138 14.9443 40.4225 14.9907 40.1363 15.0834C39.8499 15.176 39.607 15.3014 39.4069 15.4593L38.8275 14.3366C39.131 14.1236 39.4948 13.9588 39.9189 13.8421C40.3432 13.7254 40.7794 13.667 41.2276 13.667ZM41.1034 18.2922C41.3795 18.2922 41.6241 18.2286 41.8381 18.1016C42.0519 17.9746 42.2035 17.7873 42.2932 17.5402V16.9736H41.1862C40.5242 16.9736 40.1932 17.1899 40.1932 17.6227C40.1932 17.8287 40.2742 17.9916 40.4362 18.112C40.5984 18.2321 40.8207 18.2922 41.1034 18.2922ZM51.5213 13.667C52.0385 13.667 52.5093 13.7855 52.9334 14.0224C53.3576 14.2593 53.6903 14.5923 53.9317 15.0215C54.1732 15.4507 54.2939 15.9505 54.2939 16.5204C54.2939 17.0903 54.1732 17.5899 53.9317 18.0191C53.6903 18.4483 53.3576 18.7814 52.9334 19.0183C52.5093 19.2552 52.0385 19.3737 51.5213 19.3737C50.8109 19.3737 50.2523 19.1505 49.8454 18.7042V21.2898H48.2316V13.7494H49.7729V14.388C50.1729 13.9074 50.7557 13.667 51.5213 13.667ZM51.2419 18.0552C51.6558 18.0552 51.9955 17.9162 52.261 17.6381C52.5265 17.3599 52.6593 16.9874 52.6593 16.5204C52.6593 16.0534 52.5265 15.6809 52.261 15.4027C51.9955 15.1246 51.6558 14.9855 51.2419 14.9855C50.8281 14.9855 50.4885 15.1246 50.223 15.4027C49.9575 15.6809 49.8247 16.0534 49.8247 16.5204C49.8247 16.9874 49.9575 17.3599 50.223 17.6381C50.4885 17.9162 50.8281 18.0552 51.2419 18.0552ZM60.8324 16.541C60.8324 16.5616 60.8219 16.7058 60.8014 16.9736H56.5906C56.6665 17.317 56.846 17.5883 57.1285 17.7873C57.4111 17.9866 57.7628 18.0862 58.1839 18.0862C58.4736 18.0862 58.7306 18.0432 58.9544 17.9574C59.1788 17.8715 59.387 17.7359 59.5804 17.5505L60.439 18.4775C59.915 19.075 59.1494 19.3737 58.1423 19.3737C57.5146 19.3737 56.9595 19.2519 56.4768 19.0081C55.9939 18.7643 55.6216 18.426 55.3594 17.9934C55.0974 17.5607 54.9663 17.0697 54.9663 16.5204C54.9663 15.9778 55.0957 15.4886 55.3542 15.0525C55.6129 14.6165 55.9681 14.2765 56.4199 14.0328C56.8715 13.7888 57.3767 13.667 57.9356 13.667C58.4802 13.667 58.9732 13.7838 59.4148 14.0172C59.8563 14.2507 60.203 14.5855 60.4546 15.0215C60.7061 15.4577 60.8324 15.9641 60.8324 16.541ZM57.9456 14.8826C57.58 14.8826 57.2737 14.9855 57.0249 15.1916C56.7767 15.3976 56.625 15.6791 56.5695 16.0362H59.3112C59.2563 15.6861 59.1045 15.4062 58.8563 15.1967C58.6082 14.9873 58.3046 14.8826 57.9456 14.8826ZM65.6123 16.4071C65.9426 16.5101 66.1997 16.6681 66.3825 16.8809C66.5652 17.0937 66.6566 17.3479 66.6566 17.6432C66.6566 17.9934 66.5359 18.3007 66.2944 18.5651C66.0529 18.8296 65.722 19.0338 65.301 19.1781C64.8808 19.3222 64.4049 19.3944 63.8737 19.3944C63.4394 19.3944 63.0117 19.3497 62.5912 19.2605C62.1702 19.1712 61.7802 19.0372 61.4218 18.8588L61.8561 17.7359C62.4428 18.0175 63.0909 18.1582 63.8011 18.1582C64.1806 18.1582 64.4792 18.1016 64.6963 17.9883C64.9135 17.875 65.0221 17.7152 65.0221 17.5092C65.0221 17.3307 64.9462 17.1952 64.7943 17.1024C64.6426 17.0096 64.4221 16.9634 64.1324 16.9634H62.9945V15.9641H63.9878C64.2703 15.9641 64.4874 15.9195 64.6393 15.8302C64.7911 15.741 64.8669 15.6104 64.8669 15.4388C64.8669 15.2601 64.7722 15.1228 64.5822 15.0267C64.3927 14.9306 64.1219 14.8826 63.7701 14.8826C63.2322 14.8826 62.6461 15.0095 62.0112 15.2637L61.6185 14.1511C62.3907 13.8147 63.1424 13.6465 63.8737 13.6465C64.3772 13.6465 64.827 13.7082 65.2237 13.8318C65.6201 13.9554 65.9321 14.1357 66.1599 14.3726C66.3877 14.6095 66.5019 14.8858 66.5019 15.2019C66.5019 15.4629 66.4216 15.6981 66.2637 15.9075C66.1051 16.117 65.8871 16.2834 65.6123 16.4071ZM73.4022 13.7494L70.8874 19.6313C70.6328 20.27 70.3169 20.7198 69.9416 20.9808C69.565 21.2418 69.1121 21.3722 68.5808 21.3722C68.291 21.3722 68.0044 21.3275 67.7218 21.2382C67.4398 21.149 67.2081 21.0254 67.0293 20.8674L67.6187 19.724C67.7434 19.834 67.8863 19.9197 68.0482 19.9816C68.21 20.0433 68.3699 20.0742 68.5292 20.0742C68.7498 20.0742 68.9293 20.021 69.067 19.9147C69.2054 19.808 69.3294 19.6313 69.4397 19.3841L69.4599 19.3326L67.0495 13.7494H68.7152L70.2778 17.5092L71.8494 13.7494H73.4022ZM79.1231 13.7494V19.2914H77.5083V15.0679H75.75L75.6984 16.0466C75.6703 16.7744 75.6018 17.3789 75.4915 17.8595C75.3812 18.3402 75.2017 18.7179 74.9537 18.9927C74.7056 19.2672 74.3604 19.4047 73.9191 19.4047C73.6848 19.4047 73.4055 19.3634 73.0811 19.281L73.164 17.9626C73.2743 17.9762 73.3533 17.9831 73.4022 17.9831C73.6431 17.9831 73.8239 17.8955 73.9446 17.7204C74.0654 17.5453 74.1463 17.3223 74.1881 17.0508C74.2298 16.7796 74.2599 16.4209 74.2814 15.9745L74.3636 13.7494H79.1231ZM83.6848 15.5211C84.4086 15.5281 84.9647 15.6911 85.3504 16.0104C85.7368 16.3298 85.93 16.7814 85.93 17.3651C85.93 17.9762 85.7146 18.4518 85.2839 18.7918C84.8518 19.1316 84.2474 19.3016 83.4674 19.3016L80.6745 19.2914V13.7494H82.2776V15.5211H83.6848ZM83.3232 18.1582C83.6332 18.1651 83.8708 18.0999 84.0366 17.9626C84.2023 17.8251 84.2852 17.6191 84.2852 17.3445C84.2852 17.0766 84.2037 16.8809 84.0424 16.7572C83.8799 16.6337 83.6397 16.5684 83.3232 16.5616L82.2776 16.5512V18.1582H83.3232ZM91.1026 15.0679H89.2196V19.2914H87.6166V15.0679H85.7336V13.7494H91.1026V15.0679ZM94.1233 13.667C94.9855 13.667 95.6474 13.8713 96.1101 14.2799C96.5716 14.6885 96.8026 15.3048 96.8026 16.1289V19.2914H95.2923V18.6012C94.9894 19.1162 94.4236 19.3737 93.5959 19.3737C93.1684 19.3737 92.7977 19.3016 92.4837 19.1574C92.1698 19.0132 91.9303 18.8141 91.7645 18.5599C91.5993 18.3059 91.5164 18.0175 91.5164 17.6947C91.5164 17.1796 91.7116 16.7744 92.1006 16.4791C92.4909 16.1838 93.092 16.0362 93.906 16.0362H95.1892C95.1892 15.6861 95.0821 15.4164 94.8687 15.2277C94.6546 15.0387 94.3341 14.9443 93.906 14.9443C93.6096 14.9443 93.3185 14.9907 93.032 15.0834C92.7455 15.176 92.5027 15.3014 92.3023 15.4593L91.7234 14.3366C92.0262 14.1236 92.3904 13.9588 92.8147 13.8421C93.2389 13.7254 93.6749 13.667 94.1233 13.667ZM93.9993 18.2922C94.2754 18.2922 94.5201 18.2286 94.7336 18.1016C94.9477 17.9746 95.0991 17.7873 95.1892 17.5402V16.9736H94.0822C93.4197 16.9736 93.0888 17.1899 93.0888 17.6227C93.0888 17.8287 93.1697 17.9916 93.3316 18.112C93.4941 18.2321 93.7167 18.2922 93.9993 18.2922ZM102.642 15.0679H101.003V19.2914H99.399V15.0679H97.5167V13.7494H103.13L102.642 15.0679Z" fill="white"/>
  </symbol>

  <symbol viewBox="0 0 10 7" fill="none" xmlns="http://www.w3.org/2000/svg" id="up" >
    <path opacity="0.5" d="M9 6L5 2L1 6" stroke="white" stroke-width="1.5"/>
  </symbol>

  <symbol viewBox="0 0 16 16" fill="none" xmlns="http://www.w3.org/2000/svg" id="close-pp">
    <path d="M15 1L1 15" stroke-width="1.5"/>
    <path d="M15 15L1 1" stroke-width="1.5"/>
  </symbol>

  <symbol xmlns="http://www.w3.org/2000/svg" id="close-cart" viewBox="0 0 22 22" fill="none">
    <path d="M21 1L1 21" stroke="#938DAC" stroke-width="1.5"/>
    <path d="M21 21L1 1" stroke="#938DAC" stroke-width="1.5"/>
  </symbol>
  
  <symbol viewBox="0 0 8 12" id="arrow" fill="none" xmlns="http://www.w3.org/2000/svg">
    <path d="M1 1L6 6L1 11" stroke-width="2"/>
  </symbol>


  <symbol viewBox="0 0 12 12" fill="none" id="link" xmlns="http://www.w3.org/2000/svg">
    <path d="M1 11L11 1M11 1H1M11 1V11" stroke="#E72922" stroke-width="1.5"/>
  </symbol>

  <symbol viewBox="0 0 12 12" fill="none" id="link-2" xmlns="http://www.w3.org/2000/svg">
    <path d="M1 11L11 1M11 1H1M11 1V11" stroke-width="1.5"/>
  </symbol>

  <symbol xmlns="http://www.w3.org/2000/svg" viewBox="0 0 10 7" fill="none" id="dropdown">
    <path d="M9 1.5L5 5.5L1 1.5" stroke="#E72922" stroke-width="1.5"/>
  </symbol>

  <symbol xmlns="http://www.w3.org/2000/svg" viewBox="0 0 60 60" id="seo-icon">
    <circle cx="30" cy="30" r="30"/>
    <path d="M29 24L35 30L29 36" stroke="#E72922" stroke-width="1.5"/>
  </symbol>

  <symbol xmlns="http://www.w3.org/2000/svg" id="burger-ham" viewBox="0 0 24 24" fill="none">
    <path d="M0 5H24" stroke="#1F222A" stroke-width="2.5"/>
    <path d="M0 12H24" stroke="#1F222A" stroke-width="2.5"/>
    <path d="M0 19H24" stroke="#1F222A" stroke-width="2.5"/>
  </symbol>

  <symbol xmlns="http://www.w3.org/2000/svg" id="burger-cross" viewBox="0 0 24 24" fill="none">
    <path d="M3.51465 3.51465L20.4852 20.4852" stroke="#1F222A" stroke-width="2.5"/>
    <path d="M3.51465 20.4854L20.4852 3.51479" stroke="#1F222A" stroke-width="2.5"/>
  </symbol>

  <symbol xmlns="http://www.w3.org/2000/svg" id="phone-call" viewBox="0 0 22 22" fill="none">
    <path d="M18.2364 14.2748L15.6912 13.9842C15.392 13.949 15.0886 13.9822 14.804 14.0811C14.5194 14.18 14.2609 14.3422 14.0479 14.5553L12.2042 16.3991C9.35968 14.9524 7.04761 12.6403 5.60092 9.79573L7.45465 7.94199C7.88552 7.51112 8.09594 6.90991 8.0258 6.29868L7.73522 3.77358C7.67841 3.28477 7.44382 2.83392 7.07613 2.50687C6.70843 2.17982 6.2333 1.99942 5.7412 2H4.00771C2.87544 2 1.93354 2.9419 2.00368 4.07419C2.53475 12.6315 9.37853 19.4652 17.9257 19.9963C19.058 20.0665 19.9999 19.1246 19.9999 17.9923V16.2588C20.0099 15.2467 19.2484 14.395 18.2364 14.2748Z" fill="#B8B4CA"/>
  </symbol>

  <symbol xmlns="http://www.w3.org/2000/svg" id="search-btn" viewBox="0 0 22 22" fill="none">
    <path d="M9.97458 18.0996C11.5125 18.1018 13.0126 17.6657 14.3027 16.8516C14.6835 16.6114 15.1754 16.6405 15.4794 16.9446L18.0133 19.4791C18.418 19.8839 19.0744 19.884 19.4792 19.4792C19.884 19.0744 19.8839 18.418 19.4791 18.0133L16.9446 15.4794C16.6405 15.1754 16.6114 14.6835 16.8516 14.3027L17.9496 9.9748H18.0996C18.0996 9.97472 18.0996 9.97465 18.0996 9.97458C18.0995 5.48975 14.4597 1.85 9.9748 1.85C5.48987 1.85 1.85 5.48987 1.85 9.9748C1.85 14.4597 5.48975 18.0995 9.97458 18.0996ZM9.97458 18.0996L9.9748 17.9496V18.0996C9.97472 18.0996 9.97465 18.0996 9.97458 18.0996ZM16.0274 9.9748L16.0274 9.97503C16.0299 11.5486 15.4174 13.0609 14.3206 14.1892C14.3203 14.1894 14.3201 14.1897 14.3199 14.1899L14.1899 14.3199C14.1897 14.3201 14.1894 14.3203 14.1892 14.3206C13.0609 15.4174 11.5486 16.0299 9.97503 16.0274H9.9748C6.63026 16.0274 3.92218 13.3185 3.92218 9.9748C3.92218 6.63025 6.63025 3.92218 9.9748 3.92218C13.3185 3.92218 16.0274 6.63026 16.0274 9.9748Z" fill="#B8B4CA" stroke="#B8B4CA" stroke-width="0.3"/>
  </symbol>

  <symbol xmlns="http://www.w3.org/2000/svg" id="cart-btn" viewBox="0 0 22 22" fill="none">
    <path d="M6.6061 22C6.00054 22 5.48196 21.7844 5.05037 21.3532C4.61877 20.922 4.40334 20.4043 4.40407 19.8C4.40407 19.195 4.61987 18.6769 5.05147 18.2457C5.48307 17.8145 6.00128 17.5993 6.6061 17.6C7.21166 17.6 7.73024 17.8156 8.16184 18.2468C8.59344 18.678 8.80887 19.1957 8.80814 19.8C8.80814 20.405 8.59234 20.9231 8.16074 21.3543C7.72914 21.7855 7.21093 22.0007 6.6061 22ZM17.6163 22C17.0107 22 16.4921 21.7844 16.0605 21.3532C15.6289 20.922 15.4135 20.4043 15.4142 19.8C15.4142 19.195 15.63 18.6769 16.0616 18.2457C16.4932 17.8145 17.0114 17.5993 17.6163 17.6C18.2218 17.6 18.7404 17.8156 19.172 18.2468C19.6036 18.678 19.819 19.1957 19.8183 19.8C19.8183 20.405 19.6025 20.9231 19.1709 21.3543C18.7393 21.7855 18.2211 22.0007 17.6163 22ZM4.62427 2.2H20.8643C21.2863 2.2 21.6075 2.3881 21.8277 2.7643C22.0479 3.1405 22.057 3.52073 21.8552 3.905L17.9466 10.945C17.7447 11.3117 17.4739 11.5958 17.134 11.7975C16.7942 11.9992 16.4228 12.1 16.0198 12.1H7.81722L6.6061 14.3H19.8183V16.5H6.6061C5.78034 16.5 5.15643 16.1377 4.73437 15.4132C4.31232 14.6887 4.29397 13.9693 4.67932 13.255L6.1657 10.56L2.20203 2.2H0V0H3.57831L4.62427 2.2Z" fill="#B8B4CA"/>
  </symbol>

  <symbol xmlns="http://www.w3.org/2000/svg" id="result-search" viewBox="0 0 18 18" fill="none">
    <path d="M14.2049 12.952L18 16.7462L16.7462 18L12.952 14.2049C11.5402 15.3366 9.78419 15.9522 7.9748 15.9496C3.57271 15.9496 0 12.3769 0 7.9748C0 3.57271 3.57271 0 7.9748 0C12.3769 0 15.9496 3.57271 15.9496 7.9748C15.9522 9.78419 15.3366 11.5402 14.2049 12.952ZM12.4274 12.2945C13.5519 11.138 14.18 9.58786 14.1774 7.9748C14.1774 4.54741 11.4013 1.77218 7.9748 1.77218C4.54741 1.77218 1.77218 4.54741 1.77218 7.9748C1.77218 11.4013 4.54741 14.1774 7.9748 14.1774C9.58786 14.18 11.138 13.5519 12.2945 12.4274L12.4274 12.2945Z" fill="#938DAC"/>
  </symbol>

  <symbol xmlns="http://www.w3.org/2000/svg" id="mcatarr" viewBox="0 0 7 11" fill="none">
    <path d="M1 1L5 5.5L1 10" stroke="#E72922" stroke-width="1.5"/>
  </symbol>

  <symbol xmlns="http://www.w3.org/2000/svg" id="mcatarrd" viewBox="0 0 7 11" fill="none">
    <path d="M1 1L5 5.5L1 10" stroke="#1F222A" stroke-width="1.5"/>
  </symbol>

  <symbol xmlns="http://www.w3.org/2000/svg" viewBox="0 0 7 11" fill="none" id="backarr">
    <path d="M6 1L2 5.5L6 10" stroke="#B8B4CA" stroke-width="1.5"/>
  </symbol>

  <symbol xmlns="http://www.w3.org/2000/svg" id="droparr" viewBox="0 0 12 8" fill="none">
    <path d="M1 1L6 6L11 1" stroke-width="2"/>
  </symbol>

  <symbol xmlns="http://www.w3.org/2000/svg" id="card-cart" viewBox="0 0 16 16" fill="none">
    <path d="M4.80444 16C4.36403 16 3.98688 15.8432 3.67299 15.5296C3.3591 15.216 3.20243 14.8395 3.20296 14.4C3.20296 13.96 3.3599 13.5832 3.67379 13.2696C3.98768 12.956 4.36457 12.7995 4.80444 12.8C5.24485 12.8 5.62199 12.9568 5.93588 13.2704C6.24977 13.584 6.40645 13.9605 6.40592 14.4C6.40592 14.84 6.24897 15.2168 5.93508 15.5304C5.62119 15.844 5.24431 16.0005 4.80444 16ZM12.8118 16C12.3714 16 11.9943 15.8432 11.6804 15.5296C11.3665 15.216 11.2098 14.8395 11.2104 14.4C11.2104 13.96 11.3673 13.5832 11.6812 13.2696C11.9951 12.956 12.372 12.7995 12.8118 12.8C13.2522 12.8 13.6294 12.9568 13.9433 13.2704C14.2572 13.584 14.4139 13.9605 14.4133 14.4C14.4133 14.84 14.2564 15.2168 13.9425 15.5304C13.6286 15.844 13.2517 16.0005 12.8118 16ZM3.36311 1.6H15.174C15.481 1.6 15.7145 1.7368 15.8747 2.0104C16.0348 2.284 16.0415 2.56053 15.8947 2.84L13.0521 7.96C12.9053 8.22667 12.7083 8.43333 12.4611 8.58C12.214 8.72667 11.9438 8.8 11.6508 8.8H5.68525L4.80444 10.4H14.4133V12H4.80444C4.20388 12 3.75013 11.7365 3.44318 11.2096C3.13623 10.6827 3.12289 10.1595 3.40314 9.64L4.48414 7.68L1.60148 1.6H0V0H2.6024L3.36311 1.6Z" fill="white"/>
  </symbol>

  <symbol viewBox="0 0 24 24" xmlns="http://www.w3.org/2000/svg" id="filter-alt" >
    <path d="M12,9a3.66,3.66,0,0,0,1-.13V21a1,1,0,0,1-2,0V8.87A3.66,3.66,0,0,0,12,9Z"></path>
    <path d="M19,16a3.66,3.66,0,0,0,1-.13V21a1,1,0,0,1-2,0V15.87A3.66,3.66,0,0,0,19,16Z"></path>
    <path d="M20,3V8.13a3.91,3.91,0,0,0-2,0V3a1,1,0,0,1,2,0Z"></path>
    <path d="M6,3V15.13A3.66,3.66,0,0,0,5,15a3.66,3.66,0,0,0-1,.13V3A1,1,0,0,1,6,3Z"></path>
    <path d="M8,19a3,3,0,1,1-4-2.82,2.87,2.87,0,0,1,2,0A3,3,0,0,1,8,19Z"></path>
    <path d="M15,5a3,3,0,0,1-2,2.82,2.87,2.87,0,0,1-2,0A3,3,0,1,1,15,5Z"></path>
    <path d="M22,12a3,3,0,0,1-2,2.82,2.87,2.87,0,0,1-2,0,3,3,0,0,1,0-5.64,2.87,2.87,0,0,1,2,0A3,3,0,0,1,22,12Z"></path>
  </symbol>

  <symbol xmlns="http://www.w3.org/2000/svg" id="clear" viewBox="0 0 10 11" fill="none">
    <path d="M1 1.5L5 5.5L1 9.5" stroke="#E72922" stroke-width="1.5"/>
    <path d="M9 1.5L5 5.5L9 9.5" stroke="#E72922" stroke-width="1.5"/>
  </symbol>

  <symbol xmlns="http://www.w3.org/2000/svg" id="quote" viewBox="0 0 95 75" fill="none">
    <path d="M0 75V54.3696C0 48.2808 1.10989 41.8696 3.32968 35.1361C5.54947 28.4026 8.63636 21.9556 12.5904 15.7951C16.5444 9.63466 21.192 4.36962 26.5334 0L41.9332 11.3897C37.7017 17.765 34.0946 24.4269 31.1117 31.3753C28.1289 38.3238 26.6375 45.8811 26.6375 54.0473V75H0ZM53.0668 75V54.3696C53.0668 48.2808 54.1767 41.8696 56.3965 35.1361C58.6163 28.4026 61.7032 21.9556 65.6572 15.7951C69.6112 9.63466 74.2589 4.36962 79.6002 0L95 11.3897C90.7685 17.765 87.1614 24.4269 84.1785 31.3753C81.1957 38.3238 79.7043 45.8811 79.7043 54.0473V75H53.0668Z" fill="white" fill-opacity="0.18"/>
  </symbol>

  <symbol xmlns="http://www.w3.org/2000/svg" id="office-pin" viewBox="0 0 28 28" fill="none">
    <path d="M17.5 12.25C17.5 13.1783 17.1313 14.0685 16.4749 14.7249C15.8185 15.3813 14.9283 15.75 14 15.75C13.0717 15.75 12.1815 15.3813 11.5251 14.7249C10.8687 14.0685 10.5 13.1783 10.5 12.25C10.5 11.3217 10.8687 10.4315 11.5251 9.77513C12.1815 9.11875 13.0717 8.75 14 8.75C14.9283 8.75 15.8185 9.11875 16.4749 9.77513C17.1313 10.4315 17.5 11.3217 17.5 12.25Z" stroke="#938DAC" stroke-width="1.7" stroke-linecap="round" stroke-linejoin="round"/>
    <path d="M22.75 12.25C22.75 20.5823 14 25.375 14 25.375C14 25.375 5.25 20.5823 5.25 12.25C5.25 9.92936 6.17187 7.70376 7.81282 6.06282C9.45376 4.42187 11.6794 3.5 14 3.5C16.3206 3.5 18.5462 4.42187 20.1872 6.06282C21.8281 7.70376 22.75 9.92936 22.75 12.25Z" stroke="#938DAC" stroke-width="1.7" stroke-linecap="round" stroke-linejoin="round"/>
  </symbol>

  <symbol xmlns="http://www.w3.org/2000/svg" id="promocode" viewBox="0 0 9 14" fill="none">
    <path d="M1 1L7 7L1 13" stroke="#E72922" stroke-width="1.5"/>
  </symbol>

  <symbol xmlns="http://www.w3.org/2000/svg" viewBox="0 0 28 22" id="del-1">
    <path d="M19.0778 0.800049C19.3861 0.82869 19.6476 1.113 19.6462 1.41823V4.81823H24.9781C25.2229 4.81793 25.4607 4.97285 25.5563 5.19494L27.7518 10.4495C27.7843 10.5257 27.801 10.6083 27.8008 10.691V17.491C27.8007 17.8146 27.5019 18.1091 27.1735 18.1091H25.2329C24.9302 19.8567 23.3846 21.2 21.5281 21.2C19.6715 21.2 18.1248 19.8567 17.8232 18.1091H10.1783C9.87678 19.8567 8.33004 21.2 6.47351 21.2C4.61698 21.2 3.07141 19.8567 2.76868 18.1091H0.828054C0.499624 18.1091 0.200814 17.8146 0.200781 17.491V1.41823C0.200814 1.09456 0.499624 0.800081 0.828054 0.800049C6.91002 0.800049 13 0.800049 19.0778 0.800049ZM18.3917 2.03641H1.45533V16.8728H2.76868C3.07141 15.124 4.61698 13.7819 6.47351 13.7819C8.33004 13.7819 9.87678 15.124 10.1783 16.8728H17.8232C17.9125 16.3553 18.1081 15.8752 18.3917 15.4529V2.03641ZM24.5566 6.05459H19.6462V10.0728H26.2424L24.5566 6.05459ZM26.5462 11.3091H19.6462V14.2841C20.2003 13.9659 20.8437 13.7819 21.5281 13.7819C23.3846 13.7819 24.9302 15.124 25.2329 16.8728H26.5462V11.3091ZM21.5281 15.0182C20.1349 15.0182 19.019 16.118 19.019 17.491C19.019 18.8639 20.1349 19.9637 21.5281 19.9637C22.9212 19.9637 24.0371 18.8639 24.0371 17.491C24.0371 16.118 22.9212 15.0182 21.5281 15.0182ZM6.47351 15.0182C5.08035 15.0182 3.96442 16.118 3.96442 17.491C3.96442 18.8639 5.08034 19.9637 6.47351 19.9637C7.86667 19.9637 8.9826 18.8639 8.9826 17.491C8.9826 16.118 7.86667 15.0182 6.47351 15.0182Z" ></path>
    <path d="M19.0778 0.800049C19.3861 0.82869 19.6476 1.113 19.6462 1.41823V4.81823H24.9781C25.2229 4.81793 25.4607 4.97285 25.5563 5.19494L27.7518 10.4495C27.7843 10.5257 27.801 10.6083 27.8008 10.691V17.491C27.8007 17.8146 27.5019 18.1091 27.1735 18.1091H25.2329C24.9302 19.8567 23.3846 21.2 21.5281 21.2C19.6715 21.2 18.1248 19.8567 17.8232 18.1091H10.1783C9.87678 19.8567 8.33004 21.2 6.47351 21.2C4.61698 21.2 3.07141 19.8567 2.76868 18.1091H0.828054C0.499624 18.1091 0.200814 17.8146 0.200781 17.491V1.41823C0.200814 1.09456 0.499624 0.800081 0.828054 0.800049C6.91002 0.800049 13 0.800049 19.0778 0.800049ZM18.3917 2.03641H1.45533V16.8728H2.76868C3.07141 15.124 4.61698 13.7819 6.47351 13.7819C8.33004 13.7819 9.87678 15.124 10.1783 16.8728H17.8232C17.9125 16.3553 18.1081 15.8752 18.3917 15.4529V2.03641ZM24.5566 6.05459H19.6462V10.0728H26.2424L24.5566 6.05459ZM26.5462 11.3091H19.6462V14.2841C20.2003 13.9659 20.8437 13.7819 21.5281 13.7819C23.3846 13.7819 24.9302 15.124 25.2329 16.8728H26.5462V11.3091ZM21.5281 15.0182C20.1349 15.0182 19.019 16.118 19.019 17.491C19.019 18.8639 20.1349 19.9637 21.5281 19.9637C22.9212 19.9637 24.0371 18.8639 24.0371 17.491C24.0371 16.118 22.9212 15.0182 21.5281 15.0182ZM6.47351 15.0182C5.08035 15.0182 3.96442 16.118 3.96442 17.491C3.96442 18.8639 5.08034 19.9637 6.47351 19.9637C7.86667 19.9637 8.9826 18.8639 8.9826 17.491C8.9826 16.118 7.86667 15.0182 6.47351 15.0182Z"  stroke-width="0.1"></path>
  </symbol>

  <symbol xmlns="http://www.w3.org/2000/svg" id="del-2" viewBox="0 0 22 22" >
    <mask id="path-1-inside-1_363_6796" fill="white">
      <path fill-rule="evenodd" clip-rule="evenodd" d="M5.87843 0C5.00423 0 4.40505 1.52477e-08 3.87027 0.136093C3.31679 0.278512 2.80144 0.528483 2.3577 0.869774C1.91396 1.21107 1.55175 1.63604 1.29458 2.11712C1.04683 2.57963 0.930051 3.13116 0.758702 3.93544L0.0820379 7.10549C-0.0378006 7.6612 -0.0262226 8.23479 0.115956 8.78586C0.258135 9.33692 0.527456 9.85206 0.904949 10.295V13.1038C0.904949 14.9846 0.904949 16.4744 1.07193 17.6399C1.24437 18.8392 1.60672 19.8102 2.42308 20.5767C3.23944 21.342 4.27518 21.6818 5.55538 21.8434C6.79848 22 8.38755 22 10.3924 22H11.6072C13.6131 22 15.2022 22 16.4453 21.8434C17.7244 21.6818 18.7602 21.342 19.5776 20.5767C20.394 19.8102 20.7563 18.8392 20.9288 17.6399C21.0957 16.4734 21.0957 14.9846 21.0957 13.1038V10.296C21.4732 9.85287 21.7424 9.33753 21.8844 8.78628C22.0264 8.23503 22.0377 7.66129 21.9176 7.10549L21.2409 3.93544C21.0706 3.13116 20.9528 2.57963 20.7061 2.11712C20.4488 1.63594 20.0864 1.21089 19.6425 0.869594C19.1986 0.528297 18.683 0.278384 18.1293 0.136093C17.5956 1.52477e-08 16.9965 0 16.1212 0H5.87843ZM17.8412 11.7674C18.3967 11.7684 18.9467 11.6647 19.4587 11.4625V13.0465C19.4587 14.9979 19.4565 16.3844 19.3059 17.4363C19.1585 18.4647 18.8813 19.0581 18.4196 19.491C17.958 19.9238 17.325 20.1837 16.2259 20.3219C15.6688 20.3867 15.1086 20.4256 14.5474 20.4385V17.6184C14.5474 17.1682 14.5474 16.7793 14.5168 16.4621C14.4841 16.1245 14.412 15.7909 14.2178 15.4767C14.0025 15.1267 13.6927 14.8359 13.3196 14.6336C12.9845 14.4525 12.6287 14.3849 12.2685 14.3542C11.9302 14.3256 11.5155 14.3256 11.0353 14.3256H10.9643C10.4841 14.3256 10.0705 14.3256 9.73106 14.3542C9.3709 14.3849 9.01619 14.4525 8.68113 14.6336C8.30759 14.8357 7.99742 15.1265 7.78183 15.4767C7.58865 15.7909 7.51662 16.1245 7.48387 16.4611C7.45332 16.7804 7.45332 17.1682 7.45332 17.6174V20.4385C6.89136 20.4257 6.33042 20.3867 5.77257 20.3219C4.67572 20.1837 4.04271 19.9238 3.58105 19.491C3.1183 19.0581 2.84217 18.4647 2.69484 17.4353C2.54313 16.3844 2.54204 14.9979 2.54204 13.0465V11.4625C3.41418 11.808 4.38601 11.8638 5.29663 11.6208C6.20724 11.3778 7.00202 10.8504 7.54936 10.1261C7.94584 10.6354 8.46515 11.0496 9.0649 11.3348C9.66465 11.6201 10.3278 11.7683 11.0003 11.7674C11.6729 11.7683 12.336 11.6201 12.9358 11.3348C13.5355 11.0496 14.0549 10.6354 14.4513 10.1261C14.8355 10.6337 15.3437 11.0476 15.9335 11.3331C16.5232 11.6187 17.1774 11.7676 17.8412 11.7674ZM9.09041 20.4631C9.51387 20.4651 9.96789 20.4651 10.4547 20.4651H11.546C12.0328 20.4651 12.4857 20.4651 12.9103 20.4631V17.6512C12.9103 17.159 12.9092 16.8407 12.8863 16.6003C12.8644 16.37 12.8263 16.2861 12.8001 16.2442C12.7283 16.1278 12.6252 16.0311 12.501 15.9638C12.4563 15.9393 12.3668 15.9045 12.1212 15.883C11.7481 15.8614 11.3741 15.8539 11.0003 15.8605C10.4754 15.8605 10.136 15.8605 9.87949 15.883C9.63283 15.9034 9.54443 15.9393 9.49968 15.9638C9.37513 16.031 9.27161 16.1277 9.19955 16.2442C9.17445 16.2851 9.13625 16.37 9.11442 16.6003C9.0915 16.8407 9.09041 17.159 9.09041 17.6512V20.4631ZM7.366 1.53488H5.99958C4.95839 1.53488 4.59714 1.54205 4.30464 1.61674C3.97261 1.70213 3.66345 1.85201 3.39721 2.05668C3.13096 2.26135 2.9136 2.51622 2.75923 2.80474C2.6228 3.05953 2.54532 3.38902 2.34122 4.34679L1.68857 7.40633C1.61901 7.72112 1.61868 8.04592 1.68759 8.36084C1.75649 8.67577 1.8932 8.9742 2.08933 9.2379C2.28547 9.50159 2.53692 9.72501 2.8283 9.89447C3.11968 10.0639 3.44487 10.1759 3.78398 10.2235C4.12309 10.2711 4.469 10.2533 4.80054 10.1713C5.13208 10.0893 5.44229 9.94471 5.7122 9.74643C5.9821 9.54815 6.20604 9.30034 6.37029 9.01814C6.53455 8.73595 6.63569 8.4253 6.66751 8.10521L6.74282 7.40326L6.74718 7.36028L7.36819 1.53488H7.366ZM8.37118 7.54651L9.01292 1.53488H12.9878L13.6252 7.51274C13.6609 7.85479 13.6202 8.20006 13.5056 8.52653C13.3911 8.853 13.2052 9.15351 12.9599 9.40888C12.7146 9.66425 12.4152 9.86889 12.0808 10.0097C11.7465 10.1506 11.3844 10.2245 11.0179 10.2269C10.6513 10.2292 10.2883 10.1599 9.95187 10.0234C9.61547 9.88688 9.31312 9.68612 9.06409 9.43392C8.81506 9.18172 8.62483 8.88363 8.50552 8.55867C8.38622 8.2337 8.34046 7.88898 8.37118 7.54651ZM17.6961 1.61674C17.4036 1.54205 17.0423 1.53488 16.0011 1.53488H14.6325L15.3343 8.10419C15.3671 8.42336 15.4689 8.73292 15.6335 9.01402C15.7981 9.29512 16.0219 9.54187 16.2915 9.73925C16.561 9.93663 16.8706 10.0805 17.2013 10.1621C17.5321 10.2437 17.8771 10.2613 18.2153 10.2139C18.5536 10.1665 18.878 10.055 19.1688 9.88628C19.4596 9.71753 19.7108 9.49505 19.9069 9.23239C20.1031 8.96972 20.2402 8.67236 20.3099 8.35843C20.3795 8.04449 20.3803 7.72055 20.3121 7.40633L19.6606 4.34679C19.4554 3.38902 19.3779 3.05953 19.2426 2.80474C19.0881 2.51611 18.8705 2.26117 18.6041 2.0565C18.3377 1.85183 18.0283 1.702 17.6961 1.61674Z"/>
    </mask>
    <path fill-rule="evenodd" clip-rule="evenodd" d="M5.87843 0C5.00423 0 4.40505 1.52477e-08 3.87027 0.136093C3.31679 0.278512 2.80144 0.528483 2.3577 0.869774C1.91396 1.21107 1.55175 1.63604 1.29458 2.11712C1.04683 2.57963 0.930051 3.13116 0.758702 3.93544L0.0820379 7.10549C-0.0378006 7.6612 -0.0262226 8.23479 0.115956 8.78586C0.258135 9.33692 0.527456 9.85206 0.904949 10.295V13.1038C0.904949 14.9846 0.904949 16.4744 1.07193 17.6399C1.24437 18.8392 1.60672 19.8102 2.42308 20.5767C3.23944 21.342 4.27518 21.6818 5.55538 21.8434C6.79848 22 8.38755 22 10.3924 22H11.6072C13.6131 22 15.2022 22 16.4453 21.8434C17.7244 21.6818 18.7602 21.342 19.5776 20.5767C20.394 19.8102 20.7563 18.8392 20.9288 17.6399C21.0957 16.4734 21.0957 14.9846 21.0957 13.1038V10.296C21.4732 9.85287 21.7424 9.33753 21.8844 8.78628C22.0264 8.23503 22.0377 7.66129 21.9176 7.10549L21.2409 3.93544C21.0706 3.13116 20.9528 2.57963 20.7061 2.11712C20.4488 1.63594 20.0864 1.21089 19.6425 0.869594C19.1986 0.528297 18.683 0.278384 18.1293 0.136093C17.5956 1.52477e-08 16.9965 0 16.1212 0H5.87843ZM17.8412 11.7674C18.3967 11.7684 18.9467 11.6647 19.4587 11.4625V13.0465C19.4587 14.9979 19.4565 16.3844 19.3059 17.4363C19.1585 18.4647 18.8813 19.0581 18.4196 19.491C17.958 19.9238 17.325 20.1837 16.2259 20.3219C15.6688 20.3867 15.1086 20.4256 14.5474 20.4385V17.6184C14.5474 17.1682 14.5474 16.7793 14.5168 16.4621C14.4841 16.1245 14.412 15.7909 14.2178 15.4767C14.0025 15.1267 13.6927 14.8359 13.3196 14.6336C12.9845 14.4525 12.6287 14.3849 12.2685 14.3542C11.9302 14.3256 11.5155 14.3256 11.0353 14.3256H10.9643C10.4841 14.3256 10.0705 14.3256 9.73106 14.3542C9.3709 14.3849 9.01619 14.4525 8.68113 14.6336C8.30759 14.8357 7.99742 15.1265 7.78183 15.4767C7.58865 15.7909 7.51662 16.1245 7.48387 16.4611C7.45332 16.7804 7.45332 17.1682 7.45332 17.6174V20.4385C6.89136 20.4257 6.33042 20.3867 5.77257 20.3219C4.67572 20.1837 4.04271 19.9238 3.58105 19.491C3.1183 19.0581 2.84217 18.4647 2.69484 17.4353C2.54313 16.3844 2.54204 14.9979 2.54204 13.0465V11.4625C3.41418 11.808 4.38601 11.8638 5.29663 11.6208C6.20724 11.3778 7.00202 10.8504 7.54936 10.1261C7.94584 10.6354 8.46515 11.0496 9.0649 11.3348C9.66465 11.6201 10.3278 11.7683 11.0003 11.7674C11.6729 11.7683 12.336 11.6201 12.9358 11.3348C13.5355 11.0496 14.0549 10.6354 14.4513 10.1261C14.8355 10.6337 15.3437 11.0476 15.9335 11.3331C16.5232 11.6187 17.1774 11.7676 17.8412 11.7674ZM9.09041 20.4631C9.51387 20.4651 9.96789 20.4651 10.4547 20.4651H11.546C12.0328 20.4651 12.4857 20.4651 12.9103 20.4631V17.6512C12.9103 17.159 12.9092 16.8407 12.8863 16.6003C12.8644 16.37 12.8263 16.2861 12.8001 16.2442C12.7283 16.1278 12.6252 16.0311 12.501 15.9638C12.4563 15.9393 12.3668 15.9045 12.1212 15.883C11.7481 15.8614 11.3741 15.8539 11.0003 15.8605C10.4754 15.8605 10.136 15.8605 9.87949 15.883C9.63283 15.9034 9.54443 15.9393 9.49968 15.9638C9.37513 16.031 9.27161 16.1277 9.19955 16.2442C9.17445 16.2851 9.13625 16.37 9.11442 16.6003C9.0915 16.8407 9.09041 17.159 9.09041 17.6512V20.4631ZM7.366 1.53488H5.99958C4.95839 1.53488 4.59714 1.54205 4.30464 1.61674C3.97261 1.70213 3.66345 1.85201 3.39721 2.05668C3.13096 2.26135 2.9136 2.51622 2.75923 2.80474C2.6228 3.05953 2.54532 3.38902 2.34122 4.34679L1.68857 7.40633C1.61901 7.72112 1.61868 8.04592 1.68759 8.36084C1.75649 8.67577 1.8932 8.9742 2.08933 9.2379C2.28547 9.50159 2.53692 9.72501 2.8283 9.89447C3.11968 10.0639 3.44487 10.1759 3.78398 10.2235C4.12309 10.2711 4.469 10.2533 4.80054 10.1713C5.13208 10.0893 5.44229 9.94471 5.7122 9.74643C5.9821 9.54815 6.20604 9.30034 6.37029 9.01814C6.53455 8.73595 6.63569 8.4253 6.66751 8.10521L6.74282 7.40326L6.74718 7.36028L7.36819 1.53488H7.366ZM8.37118 7.54651L9.01292 1.53488H12.9878L13.6252 7.51274C13.6609 7.85479 13.6202 8.20006 13.5056 8.52653C13.3911 8.853 13.2052 9.15351 12.9599 9.40888C12.7146 9.66425 12.4152 9.86889 12.0808 10.0097C11.7465 10.1506 11.3844 10.2245 11.0179 10.2269C10.6513 10.2292 10.2883 10.1599 9.95187 10.0234C9.61547 9.88688 9.31312 9.68612 9.06409 9.43392C8.81506 9.18172 8.62483 8.88363 8.50552 8.55867C8.38622 8.2337 8.34046 7.88898 8.37118 7.54651ZM17.6961 1.61674C17.4036 1.54205 17.0423 1.53488 16.0011 1.53488H14.6325L15.3343 8.10419C15.3671 8.42336 15.4689 8.73292 15.6335 9.01402C15.7981 9.29512 16.0219 9.54187 16.2915 9.73925C16.561 9.93663 16.8706 10.0805 17.2013 10.1621C17.5321 10.2437 17.8771 10.2613 18.2153 10.2139C18.5536 10.1665 18.878 10.055 19.1688 9.88628C19.4596 9.71753 19.7108 9.49505 19.9069 9.23239C20.1031 8.96972 20.2402 8.67236 20.3099 8.35843C20.3795 8.04449 20.3803 7.72055 20.3121 7.40633L19.6606 4.34679C19.4554 3.38902 19.3779 3.05953 19.2426 2.80474C19.0881 2.51611 18.8705 2.26117 18.6041 2.0565C18.3377 1.85183 18.0283 1.702 17.6961 1.61674Z"  stroke-width="0.3" mask="url(#path-1-inside-1_363_6796)"/>
  </symbol>

  <symbol xmlns="http://www.w3.org/2000/svg" id="pay-1" viewBox="0 0 30 30" fill="none">
    <mask id="path-3-inside-1_205_1979" fill="white">
      <path fill-rule="evenodd" clip-rule="evenodd" d="M12.7052 5H17.2952C19.3469 5 20.9722 5 22.2436 5.17486C23.5519 5.35543 24.6112 5.73486 25.4473 6.58971C26.2822 7.44571 26.6528 8.53029 26.8292 9.86971C26.9297 10.6389 26.971 11.5337 26.9877 12.5703C27.0023 12.6572 27.0038 12.7458 26.9922 12.8331C27 13.48 27 14.1794 27 14.936V15.064C27 17.1646 27 18.8286 26.8292 20.1303C26.6528 21.4697 26.2822 22.5543 25.4473 23.4103C24.6112 24.2651 23.5519 24.6446 22.2436 24.8251C20.9711 25 19.3469 25 17.2952 25H12.7052C10.6535 25 9.0282 25 7.75678 24.8251C6.44852 24.6446 5.38919 24.2651 4.55311 23.4103C3.71815 22.5543 3.34755 21.4697 3.17118 20.1303C3.00039 18.8274 3.00039 17.1646 3.00039 15.064V14.936C3.00039 14.1794 3.00039 13.48 3.00821 12.8331C2.99624 12.7459 2.99737 12.6572 3.01155 12.5703C3.02941 11.5337 3.07072 10.6389 3.17118 9.86971C3.34755 8.53029 3.71815 7.44571 4.55311 6.58971C5.38919 5.73486 6.44852 5.35543 7.75678 5.17486C9.02932 5 10.6535 5 12.7052 5ZM4.67702 13.5714C4.67478 14.0149 4.67478 14.4903 4.67478 15C4.67478 17.1794 4.67702 18.7269 4.83106 19.9029C4.98176 21.0514 5.26529 21.7143 5.73746 22.1977C6.20964 22.6811 6.85707 22.9714 7.98003 23.1257C9.12755 23.2834 10.639 23.2857 12.7677 23.2857H17.2327C19.3614 23.2857 20.874 23.2834 22.0215 23.1257C23.1433 22.9714 23.7908 22.6811 24.2629 22.1977C24.7351 21.7143 25.0186 21.0514 25.1693 19.9017C25.3234 18.7269 25.3256 17.1794 25.3256 15C25.3256 14.4903 25.3256 14.0149 25.3234 13.5714H4.67702ZM25.2966 11.8571H4.70381C4.72613 11.1863 4.76408 10.6069 4.83106 10.0971C4.98176 8.94857 5.26529 8.28571 5.73746 7.80229C6.20964 7.31886 6.85707 7.02857 7.98003 6.87429C9.12755 6.71657 10.639 6.71429 12.7677 6.71429H17.2327C19.3614 6.71429 20.874 6.71657 22.0215 6.87429C23.1433 7.02857 23.7908 7.31886 24.2629 7.80229C24.7351 8.28571 25.0186 8.94857 25.1693 10.0983C25.2363 10.6069 25.2743 11.1863 25.2966 11.8571ZM7.46544 19.5714C7.46544 19.3441 7.55364 19.1261 7.71064 18.9653C7.86765 18.8046 8.08059 18.7143 8.30263 18.7143H12.7677C12.9897 18.7143 13.2027 18.8046 13.3597 18.9653C13.5167 19.1261 13.6049 19.3441 13.6049 19.5714C13.6049 19.7988 13.5167 20.0168 13.3597 20.1775C13.2027 20.3383 12.9897 20.4286 12.7677 20.4286H8.30263C8.08059 20.4286 7.86765 20.3383 7.71064 20.1775C7.55364 20.0168 7.46544 19.7988 7.46544 19.5714ZM14.7211 19.5714C14.7211 19.3441 14.8093 19.1261 14.9663 18.9653C15.1233 18.8046 15.3363 18.7143 15.5583 18.7143H17.2327C17.4548 18.7143 17.6677 18.8046 17.8247 18.9653C17.9817 19.1261 18.0699 19.3441 18.0699 19.5714C18.0699 19.7988 17.9817 20.0168 17.8247 20.1775C17.6677 20.3383 17.4548 20.4286 17.2327 20.4286H15.5583C15.3363 20.4286 15.1233 20.3383 14.9663 20.1775C14.8093 20.0168 14.7211 19.7988 14.7211 19.5714Z"/>
    </mask>
    <path fill-rule="evenodd" clip-rule="evenodd" d="M12.7052 5H17.2952C19.3469 5 20.9722 5 22.2436 5.17486C23.5519 5.35543 24.6112 5.73486 25.4473 6.58971C26.2822 7.44571 26.6528 8.53029 26.8292 9.86971C26.9297 10.6389 26.971 11.5337 26.9877 12.5703C27.0023 12.6572 27.0038 12.7458 26.9922 12.8331C27 13.48 27 14.1794 27 14.936V15.064C27 17.1646 27 18.8286 26.8292 20.1303C26.6528 21.4697 26.2822 22.5543 25.4473 23.4103C24.6112 24.2651 23.5519 24.6446 22.2436 24.8251C20.9711 25 19.3469 25 17.2952 25H12.7052C10.6535 25 9.0282 25 7.75678 24.8251C6.44852 24.6446 5.38919 24.2651 4.55311 23.4103C3.71815 22.5543 3.34755 21.4697 3.17118 20.1303C3.00039 18.8274 3.00039 17.1646 3.00039 15.064V14.936C3.00039 14.1794 3.00039 13.48 3.00821 12.8331C2.99624 12.7459 2.99737 12.6572 3.01155 12.5703C3.02941 11.5337 3.07072 10.6389 3.17118 9.86971C3.34755 8.53029 3.71815 7.44571 4.55311 6.58971C5.38919 5.73486 6.44852 5.35543 7.75678 5.17486C9.02932 5 10.6535 5 12.7052 5ZM4.67702 13.5714C4.67478 14.0149 4.67478 14.4903 4.67478 15C4.67478 17.1794 4.67702 18.7269 4.83106 19.9029C4.98176 21.0514 5.26529 21.7143 5.73746 22.1977C6.20964 22.6811 6.85707 22.9714 7.98003 23.1257C9.12755 23.2834 10.639 23.2857 12.7677 23.2857H17.2327C19.3614 23.2857 20.874 23.2834 22.0215 23.1257C23.1433 22.9714 23.7908 22.6811 24.2629 22.1977C24.7351 21.7143 25.0186 21.0514 25.1693 19.9017C25.3234 18.7269 25.3256 17.1794 25.3256 15C25.3256 14.4903 25.3256 14.0149 25.3234 13.5714H4.67702ZM25.2966 11.8571H4.70381C4.72613 11.1863 4.76408 10.6069 4.83106 10.0971C4.98176 8.94857 5.26529 8.28571 5.73746 7.80229C6.20964 7.31886 6.85707 7.02857 7.98003 6.87429C9.12755 6.71657 10.639 6.71429 12.7677 6.71429H17.2327C19.3614 6.71429 20.874 6.71657 22.0215 6.87429C23.1433 7.02857 23.7908 7.31886 24.2629 7.80229C24.7351 8.28571 25.0186 8.94857 25.1693 10.0983C25.2363 10.6069 25.2743 11.1863 25.2966 11.8571ZM7.46544 19.5714C7.46544 19.3441 7.55364 19.1261 7.71064 18.9653C7.86765 18.8046 8.08059 18.7143 8.30263 18.7143H12.7677C12.9897 18.7143 13.2027 18.8046 13.3597 18.9653C13.5167 19.1261 13.6049 19.3441 13.6049 19.5714C13.6049 19.7988 13.5167 20.0168 13.3597 20.1775C13.2027 20.3383 12.9897 20.4286 12.7677 20.4286H8.30263C8.08059 20.4286 7.86765 20.3383 7.71064 20.1775C7.55364 20.0168 7.46544 19.7988 7.46544 19.5714ZM14.7211 19.5714C14.7211 19.3441 14.8093 19.1261 14.9663 18.9653C15.1233 18.8046 15.3363 18.7143 15.5583 18.7143H17.2327C17.4548 18.7143 17.6677 18.8046 17.8247 18.9653C17.9817 19.1261 18.0699 19.3441 18.0699 19.5714C18.0699 19.7988 17.9817 20.0168 17.8247 20.1775C17.6677 20.3383 17.4548 20.4286 17.2327 20.4286H15.5583C15.3363 20.4286 15.1233 20.3383 14.9663 20.1775C14.8093 20.0168 14.7211 19.7988 14.7211 19.5714Z" fill="#1F222A" stroke-width="0.3" mask="url(#path-3-inside-1_205_1979)"/>

  </symbol>

  <symbol xmlns="http://www.w3.org/2000/svg" id="pay-2" viewBox="0 0 30 30" >
    <path d="M24.6198 8.6999V17.3999C24.6198 17.8201 24.537 18.2362 24.3762 18.6245C24.2154 19.0127 23.9797 19.3655 23.6825 19.6626C23.3854 19.9598 23.0326 20.1955 22.6444 20.3563C22.2561 20.5171 21.84 20.5999 21.4198 20.5999H4.55977C3.71107 20.5999 2.89714 20.2628 2.29702 19.6626C1.69691 19.0625 1.35977 18.2486 1.35977 17.3999V8.6999C1.35977 7.85121 1.69691 7.03728 2.29702 6.43716C2.89714 5.83704 3.71107 5.4999 4.55977 5.4999H21.4198C21.84 5.4999 22.2561 5.58267 22.6444 5.74349C23.0326 5.9043 23.3854 6.14001 23.6825 6.43716C23.9797 6.73431 24.2154 7.08707 24.3762 7.47532C24.537 7.86356 24.6198 8.27967 24.6198 8.6999ZM2.95977 8.6999V17.3999C2.95977 17.8242 3.12834 18.2312 3.42839 18.5313C3.72845 18.8313 4.13542 18.9999 4.55977 18.9999H21.4198C21.8441 18.9999 22.2511 18.8313 22.5511 18.5313C22.8512 18.2312 23.0198 17.8242 23.0198 17.3999V8.6999C23.0198 8.27556 22.8512 7.86859 22.5511 7.56853C22.2511 7.26847 21.8441 7.0999 21.4198 7.0999H4.55977C4.13542 7.0999 3.72845 7.26847 3.42839 7.56853C3.12834 7.86859 2.95977 8.27556 2.95977 8.6999Z" stroke-width="0.2"/>
    <path d="M12.8892 15.671V15.6759L15.5152 13.0469H15.6152C15.6152 13.0468 15.6152 13.0468 15.6152 13.0468C15.6151 12.5274 15.4611 12.0198 15.1726 11.588C14.884 11.1561 14.4739 10.8195 13.9941 10.6208C13.5142 10.422 12.9862 10.37 12.4769 10.4713C11.9675 10.5727 11.4995 10.8228 11.1323 11.19C10.765 11.5573 10.5149 12.0252 10.4136 12.5346C10.3123 13.044 10.3643 13.572 10.5631 14.0518C10.7618 14.5316 11.0984 14.9418 11.5302 15.2303C11.9343 15.5003 12.4048 15.6525 12.8892 15.671ZM10.6405 9.53466C11.3358 9.07067 12.1531 8.82331 12.989 8.82388C14.1091 8.82543 15.1828 9.27127 15.9746 10.0636C16.7663 10.8558 17.2114 11.9299 17.2122 13.0499C17.2121 13.8859 16.9642 14.703 16.4997 15.398C16.0353 16.093 15.3751 16.6347 14.6027 16.9545C13.8303 17.2742 12.9805 17.3578 12.1606 17.1945C11.3408 17.0312 10.5878 16.6284 9.99689 16.0371C9.40599 15.4458 9.00373 14.6925 8.841 13.8725C8.67827 13.0526 8.76238 12.2028 9.08268 11.4306C9.40299 10.6585 9.9451 9.99867 10.6405 9.53466Z" stroke-width="0.2"/>
    <path d="M27.2736 9.63412C27.4236 9.48409 27.6271 9.3998 27.8393 9.3998C28.0515 9.3998 28.255 9.48409 28.405 9.63412C28.555 9.78415 28.6393 9.98763 28.6393 10.1998V20.0998C28.6393 21.2668 28.1757 22.3859 27.3506 23.2111C26.5254 24.0362 25.4063 24.4998 24.2393 24.4998H6.1793C5.96712 24.4998 5.76364 24.4155 5.61361 24.2655C5.46358 24.1155 5.3793 23.912 5.3793 23.6998C5.3793 23.4876 5.46358 23.2841 5.61361 23.1341C5.76364 22.9841 5.96712 22.8998 6.1793 22.8998H24.2393C24.607 22.8998 24.9711 22.8274 25.3108 22.6867C25.6505 22.546 25.9592 22.3397 26.2192 22.0797C26.4792 21.8197 26.6854 21.511 26.8262 21.1713C26.9669 20.8316 27.0393 20.4675 27.0393 20.0998V10.1998C27.0393 9.98763 27.1236 9.78415 27.2736 9.63412Z"  stroke-width="0.2"/>
  </symbol>

  <symbol xmlns="http://www.w3.org/2000/svg" id="map-pin" viewBox="0 0 18 18" fill="none">
    <path d="M9.00006 1.5C5.69181 1.5 3.00006 4.19175 3.00006 7.49625C2.97831 12.33 8.77206 16.338 9.00006 16.5C9.00006 16.5 15.0218 12.33 15.0001 7.5C15.0001 4.19175 12.3083 1.5 9.00006 1.5ZM9.00006 10.5C7.34256 10.5 6.00006 9.1575 6.00006 7.5C6.00006 5.8425 7.34256 4.5 9.00006 4.5C10.6576 4.5 12.0001 5.8425 12.0001 7.5C12.0001 9.1575 10.6576 10.5 9.00006 10.5Z" fill="white"/>
  </symbol>
</svg>