<svg width="38" height="38" viewBox="0 0 38 38" fill="none" xmlns="http://www.w3.org/2000/svg">
<g id="noun-3d-1087203 1">
<g id="Group">
<path id="Vector" d="M18.4315 6.54766C17.2372 6.29079 16.3385 5.23953 16.3385 3.98097C16.3385 2.53111 17.5369 1.35 19.0003 1.35V1.35002C20.4635 1.35038 21.6614 2.53143 21.6614 3.98099C21.6614 5.23955 20.7628 6.2908 19.5684 6.54768L19.5684 12.2505C19.5684 12.2507 19.5684 12.2508 19.5684 12.2509V12.2514H19.4184C19.4193 12.4109 19.3279 12.5566 19.1827 12.6264L18.4315 6.54766ZM18.4315 6.54766V11.8997L10.7983 15.6699C10.7981 15.67 10.7979 15.6701 10.7977 15.6702C10.6019 15.7649 10.4767 15.9627 10.4781 16.1806M18.4315 6.54766L6.12686 29.1519M27.5219 16.1806C27.5233 15.9626 27.3981 15.7649 27.2023 15.6702C27.2021 15.6701 27.2019 15.67 27.2017 15.6699L21.761 12.9828L21.761 12.9828L21.759 12.9818C21.6229 12.9171 21.4666 12.9082 21.3237 12.9573L21.3236 12.9573C21.181 13.0065 21.0635 13.1098 20.9972 13.2451L20.9971 13.2454C20.8592 13.528 20.9795 13.866 21.2625 14.0016C21.2628 14.0018 21.2632 14.0019 21.2636 14.0021L25.7002 16.1995L18.9997 19.8727L12.2993 16.1996L19.2478 12.7615C19.248 12.7614 19.2483 12.7613 19.2486 12.7612L27.3719 16.18M27.5219 16.1806C27.5219 16.1807 27.5219 16.1809 27.5219 16.1811L27.3719 16.18M27.5219 16.1806V16.18H27.3719M27.5219 16.1806V25.3326M27.3719 16.18V25.4192M27.5219 25.3326L27.4468 25.2893L27.3719 25.4192M27.5219 25.3326L32.3236 28.1013M27.5219 25.3326V25.4192H27.3719M27.3719 25.4192L32.3236 28.1013M32.3236 28.1013C32.2957 28.1401 32.2688 28.1795 32.243 28.2197L32.3692 28.3008L32.4441 28.1708L32.3236 28.1013ZM32.3236 28.1013C32.8061 27.4317 33.5954 26.9878 34.4882 26.9878C35.9517 26.9878 37.15 28.169 37.15 29.619C37.15 31.0689 35.9516 32.25 34.4882 32.25C33.025 32.25 31.8267 31.0688 31.8267 29.619C31.8267 29.4593 31.8447 29.3018 31.8731 29.1519M32.3236 28.1013L32.0421 29.0762M31.8731 29.1519L31.9672 29.2061L32.0421 29.0762M31.8731 29.1519C31.8801 29.1151 31.8877 29.0788 31.8958 29.043L32.0421 29.0762M31.8731 29.1519L26.9808 26.3296M32.0421 29.0762L26.9794 26.1556M26.9808 26.3296L27.0564 26.2843L26.9794 26.1556M26.9808 26.3296L19.3014 30.9223M26.9808 26.3296L26.9045 26.2855L26.9794 26.1556M26.9794 26.1556L19.3014 30.9223M19.3014 30.9223L19.2225 30.7947L19.2995 30.9234L19.3004 30.9229C19.3008 30.9227 19.3011 30.9225 19.3014 30.9223ZM10.4781 16.1806V16.18H10.6281L10.4781 16.1811C10.4781 16.1809 10.4781 16.1808 10.4781 16.1806ZM10.4781 16.1806V25.3326M10.4781 25.3326L5.67645 28.1013M10.4781 25.3326L10.5532 25.2893L10.6281 25.4192H10.4781V25.3326ZM5.67645 28.1013C5.19388 27.4317 4.40459 26.9878 3.51179 26.9878C2.04839 26.9878 0.85 28.1689 0.85 29.619C0.85 31.0688 2.04832 32.25 3.51179 32.25C4.9749 32.25 6.17329 31.0689 6.17329 29.619C6.17329 29.4593 6.15531 29.3018 6.12686 29.1519M5.67645 28.1013C5.70435 28.1401 5.73123 28.1795 5.75705 28.2197L5.63084 28.3008L5.55591 28.1708L5.67645 28.1013ZM6.12686 29.1519L6.03283 29.2061L5.95788 29.0762L6.10416 29.043C6.11228 29.0788 6.11989 29.1151 6.12686 29.1519ZM18.6996 30.9229L18.7005 30.9234L18.7775 30.7947L18.6986 30.9223C18.6989 30.9225 18.6992 30.9227 18.6996 30.9229ZM11.0192 26.3296L11.0955 26.2855L11.0206 26.1556L10.9436 26.2843L11.0192 26.3296ZM25.8607 16.1116L26.0246 16.1927L25.8642 16.2807L25.8607 16.1116ZM19.0003 2.47696C19.8489 2.47696 20.5246 3.14707 20.5246 3.98089C20.5246 4.81475 19.8488 5.48512 19.0003 5.48512C18.1517 5.48512 17.476 4.81476 17.476 3.98089C17.476 3.14707 18.1517 2.47696 19.0003 2.47696ZM11.6154 25.3734V17.1185L18.4316 20.8567V29.458L11.6154 25.3734ZM19.569 20.8573L26.3852 17.1185V25.374L19.569 29.4586V20.8573ZM3.51182 28.1152C4.36043 28.1152 5.0361 28.7855 5.0361 29.6194C5.0361 30.4532 4.3604 31.1233 3.51182 31.1233C2.66321 31.1233 1.98724 30.4532 1.98724 29.6194C1.98724 28.7856 2.66323 28.1152 3.51182 28.1152ZM34.4888 28.1152C35.3374 28.1152 36.0133 28.7856 36.0133 29.6194C36.0133 30.4532 35.3374 31.1233 34.4888 31.1233C33.6402 31.1233 32.9645 30.4532 32.9645 29.6194C32.9645 28.7855 33.6402 28.1152 34.4888 28.1152Z" fill="#1F222A" stroke="#1F222A" stroke-width="0.3"/>
</g>
</g>
</svg>
