<svg width="109" height="30" viewBox="0 0 109 30" fill="none" xmlns="http://www.w3.org/2000/svg">
<path id="Vector" d="M31.7584 23.6702L31.7349 23.6937V26.9397L31.7584 26.9631H32.7565C33.7687 26.9631 34.4984 26.234 34.4984 25.3167C34.4984 24.3994 33.7687 23.6702 32.7565 23.6702H31.7584ZM32.0974 24.0325H32.7565C33.5239 24.0325 34.0795 24.5969 34.0795 25.3167C34.0795 26.0364 33.5239 26.6009 32.7565 26.6009H32.0974V24.0325ZM35.6452 23.6702L35.6217 23.6937V26.9397L35.6452 26.9631H35.9607L35.9842 26.9397V23.6937L35.9607 23.6702H35.6452ZM40.0897 24.3194V23.9054C39.7836 23.6749 39.36 23.5996 38.9127 23.5996C37.9005 23.5996 37.1236 24.3758 37.1236 25.3167C37.1236 26.281 37.924 27.0337 38.9362 27.0337C39.36 27.0337 39.7836 26.9161 40.1367 26.6574V25.1803L40.1132 25.1567H39.0304L39.0069 25.1803V25.5001L39.0304 25.5237H39.7742V26.441C39.5247 26.5868 39.2093 26.6527 38.9362 26.6527C38.1453 26.6527 37.538 26.074 37.538 25.3167C37.538 24.5734 38.1217 23.9807 38.9127 23.9807C39.3128 23.9807 39.7507 24.0653 40.0661 24.3429L40.0897 24.3194ZM41.3913 23.6702L41.3678 23.6937V26.9397L41.3913 26.9631H41.7068L41.7303 26.9397V23.6937L41.7068 23.6702H41.3913ZM42.7709 23.6702L42.7474 23.6937V24.0089L42.7709 24.0325H43.882V26.9397L43.9055 26.9631H44.2257L44.2492 26.9397V24.0325H45.3603L45.3838 24.0089V23.6937L45.3603 23.6702H42.7709ZM46.8385 23.6702L46.815 23.6937L45.5062 26.9397L45.5298 26.9631H45.8782L45.9017 26.9397L46.2501 26.0788H47.7566L48.1097 26.9397L48.1333 26.9631H48.4816L48.5052 26.9397L47.1917 23.6937L47.1682 23.6702H46.8385ZM47.0033 24.1688L47.6154 25.7166H46.396L47.0033 24.1688ZM49.4748 23.6702L49.4559 23.689V26.9443L49.4748 26.9631H51.3532L51.3721 26.9443V26.6245L51.3532 26.6009H49.8185V23.689L49.7996 23.6702H49.4748ZM52.2256 25.6742L52.2021 25.6977V26.0176L52.2256 26.0412H53.6851L53.7086 26.0176V25.6977L53.6851 25.6742H52.2256ZM55.7773 23.6702L55.7537 23.6937L54.4449 26.9397L54.4685 26.9631H54.8168L54.8404 26.9397L55.1888 26.0788H56.6953L57.0484 26.9397L57.0719 26.9631H57.4204L57.4438 26.9397L56.1304 23.6937L56.1068 23.6702H55.7773ZM55.9421 24.1688L56.5541 25.7166H55.3347L55.9421 24.1688ZM58.4182 23.6702L58.3946 23.6937V26.9397L58.4182 26.9631H58.7336L58.7571 26.9397V24.0325H60.2872L60.3107 24.0089V23.6937L60.2872 23.6702H58.4182ZM61.3533 23.6702L61.3297 23.6937V26.9397L61.3533 26.9631H63.3636L63.3872 26.9397V26.6245L63.3636 26.6009H61.6922V25.3355H62.8457L62.8692 25.312V24.9921L62.8457 24.9686H61.6922V24.0325H63.2224L63.2459 24.0089V23.6937L63.2224 23.6702H61.3533ZM64.4769 23.6702L64.4534 23.6937V26.9397L64.4769 26.9631H64.7923L64.8159 26.9397V25.3355H66.7132V26.9397L66.7367 26.9631H67.052L67.0755 26.9397V23.6937L67.052 23.6702H66.7367L66.7132 23.6937V24.9686H64.8159V23.6937L64.7923 23.6702H64.4769ZM68.1139 23.6702L68.0904 23.6937V24.0089L68.1139 24.0325H69.2248V26.9397L69.2483 26.9631H69.5688L69.5923 26.9397V24.0325H70.7031L70.7266 24.0089V23.6937L70.7031 23.6702H68.1139ZM74.0704 24.3664V23.9524C73.7643 23.7313 73.3877 23.5996 72.9406 23.5996C71.9752 23.5996 71.1985 24.3758 71.1985 25.3167C71.1985 26.2575 71.9752 27.0337 72.9406 27.0337C73.3877 27.0337 73.7643 26.902 74.0704 26.6809V26.2669L74.0469 26.2434C73.7316 26.5021 73.3407 26.6527 72.9406 26.6527C72.2109 26.6527 71.613 26.0599 71.613 25.3167C71.613 24.5734 72.2109 23.9807 72.9406 23.9807C73.3407 23.9807 73.7316 24.1312 74.0469 24.39L74.0704 24.3664ZM75.0142 23.6702L74.9907 23.6937V24.0089L75.0142 24.0325H76.1251V26.9397L76.1486 26.9631H76.469L76.4925 26.9397V24.0325H77.6034L77.6269 24.0089V23.6937L77.6034 23.6702H75.0142ZM78.668 23.6702L78.6445 23.6937V26.9397L78.668 26.9631H79.7417C80.3767 26.9631 80.848 26.535 80.848 25.9706C80.848 25.5566 80.6124 25.2179 80.0993 25.0768C80.3062 24.9591 80.4472 24.7757 80.4472 24.4982C80.4472 23.9995 80.0758 23.6702 79.4166 23.6702H78.668ZM79.0067 24.0325H79.4166C79.8448 24.0325 80.0334 24.2112 80.0334 24.4982C80.0334 24.8228 79.8024 24.9921 79.4166 24.9921H79.0067V24.0325ZM79.0067 25.359H79.7417C80.1653 25.359 80.4335 25.6131 80.4335 25.9706C80.4335 26.3469 80.1653 26.6009 79.7417 26.6009H79.0067V25.359ZM83.5253 23.5996C82.5646 23.5996 81.7833 24.3711 81.7833 25.3167C81.7833 26.2622 82.5646 27.0337 83.5253 27.0337C84.4854 27.0337 85.2667 26.2622 85.2667 25.3167C85.2667 24.3711 84.4854 23.5996 83.5253 23.5996ZM83.5253 23.9807C84.255 23.9807 84.8477 24.5781 84.8477 25.3167C84.8477 26.0552 84.255 26.6527 83.5253 26.6527C82.7956 26.6527 82.1971 26.0552 82.1971 25.3167C82.1971 24.5781 82.7956 23.9807 83.5253 23.9807Z" fill="white"/>
<path id="Vector_2" fill-rule="evenodd" clip-rule="evenodd" d="M12.0749 2.60938C13.3808 2.60938 14.6382 2.81651 15.8162 3.1997L13.5299 7.25174H16.2319L17.9317 4.1212C21.6402 6.18045 24.1497 10.1347 24.1497 14.6746C24.1497 21.338 18.7436 26.7398 12.0749 26.7398C5.40609 26.7398 0 21.338 0 14.6746C0 8.01114 5.40609 2.60938 12.0749 2.60938ZM10.9476 9.47892L11.0172 9.40953H12.9626L13.032 9.47892L16.7145 19.0595L16.645 19.1289H14.4911L14.4216 19.0595L13.7268 17.1156H10.2529L9.55806 19.0595L9.48855 19.1289H7.33472L7.26521 19.0595L10.9476 9.47892ZM13.1015 15.1717L11.9899 11.9088L10.8782 15.1717H13.1015Z" fill="white"/>
<path id="Vector_3" d="M34.8317 2.60938C35.9699 2.60938 36.8404 2.87548 37.4434 3.40741C38.0462 3.93935 38.3479 4.7422 38.3479 5.81544V10.2362H36.6403V9.31816C36.4184 9.6477 36.1025 9.89951 35.6926 10.0737C35.2826 10.248 34.7882 10.3351 34.2094 10.3351C33.6306 10.3351 33.1243 10.2386 32.6902 10.0456C32.2561 9.85248 31.921 9.58411 31.6845 9.24048C31.4482 8.89672 31.3301 8.50848 31.3301 8.07518C31.3301 7.39731 31.588 6.85359 32.1041 6.44391C32.6203 6.0344 33.4331 5.82963 34.5422 5.82963H36.5391V5.7166C36.5391 5.18935 36.3775 4.78452 36.0542 4.50195C35.7311 4.21951 35.2512 4.07822 34.6146 4.07822C34.1805 4.07822 33.7537 4.14424 33.334 4.27602C32.9144 4.4078 32.56 4.5914 32.2706 4.82684L31.5615 3.5416C31.9667 3.24028 32.4539 3.00953 33.023 2.84962C33.5922 2.68946 34.1949 2.60938 34.8317 2.60938ZM34.5857 9.04972C35.039 9.04972 35.4418 8.94851 35.7939 8.74614C36.1461 8.5437 36.3943 8.25414 36.5391 7.87757V7.00183H34.6725C33.6306 7.00183 33.1098 7.3362 33.1098 8.00468C33.1098 8.3247 33.24 8.57905 33.5004 8.76733C33.7608 8.95561 34.1228 9.04972 34.5857 9.04972ZM43.8027 7.21372H42.3991V10.2362H40.5906V2.69429H42.3991V5.74486H43.846L46.1323 2.69429H48.0712L45.2641 6.32394L48.2593 10.2362H46.1323L43.8027 7.21372ZM57.7459 8.73903L58.2793 10.2262L56.3189 10.2362H49.5325V2.69429H51.3412V8.73903H55.0309V2.69429H56.8395V8.73903H57.7459ZM66.8523 6.50752C66.8523 6.62996 66.8432 6.80422 66.8236 7.03014H60.7609C60.8669 7.58579 61.1445 8.02581 61.5929 8.35072C62.0414 8.67557 62.5987 8.83803 63.2641 8.83803C64.1128 8.83803 64.8121 8.56483 65.3622 8.01883L66.3315 9.10627C65.9842 9.51127 65.5456 9.81714 65.0147 10.0244C64.4841 10.2315 63.8863 10.3351 63.2208 10.3351C62.3716 10.3351 61.624 10.1702 60.9779 9.84068C60.3313 9.51127 59.8323 9.0522 59.4804 8.46368C59.128 7.87529 58.9521 7.20903 58.9521 6.46509C58.9521 5.73067 59.1235 5.06923 59.466 4.48079C59.8079 3.89234 60.283 3.43325 60.8908 3.10368C61.4985 2.77423 62.1835 2.60938 62.9455 2.60938C63.6982 2.60938 64.3709 2.77182 64.9642 3.09658C65.5574 3.42161 66.0202 3.87814 66.3537 4.46672C66.6859 5.05517 66.8523 5.73549 66.8523 6.50752ZM62.9455 4.02184C62.3666 4.02184 61.8771 4.18897 61.4769 4.52311C61.0767 4.8575 60.8331 5.30239 60.7464 5.85789H65.1307C65.053 5.31176 64.8171 4.86916 64.4214 4.5302C64.0262 4.19125 63.5338 4.02184 62.9455 4.02184ZM68.8346 2.69429H70.6432V5.75906H74.5352V2.69429H76.3445V10.2362H74.5352V7.25611H70.6432V10.2362H68.8346V2.69429ZM84.9013 4.19125H82.19V10.2362H80.3807V4.19125H77.661V2.69429H84.8902L84.9013 4.19125Z" fill="white"/>
<path id="Vector_4" d="M106.719 19.8199H104.236L106.519 13.8652H109.003L106.719 19.8199Z" fill="white"/>
<path id="Vector_5" d="M31.8857 13.7494H33.4893V15.9125H35.91V13.7494H37.5239V19.2914H35.91V17.2208H33.4893V19.2914H31.8857V13.7494ZM41.2276 13.667C42.0897 13.667 42.7519 13.8713 43.214 14.2799C43.6762 14.6885 43.9071 15.3048 43.9071 16.1289V19.2914H42.3967V18.6012C42.0932 19.1162 41.5276 19.3737 40.7 19.3737C40.2725 19.3737 39.9018 19.3016 39.5879 19.1574C39.2741 19.0132 39.0344 18.8141 38.8689 18.5599C38.7035 18.3059 38.6206 18.0175 38.6206 17.6947C38.6206 17.1796 38.8155 16.7744 39.2052 16.4791C39.5949 16.1838 40.1966 16.0362 41.0104 16.0362H42.2932C42.2932 15.6861 42.1864 15.4164 41.9725 15.2277C41.7586 15.0387 41.4379 14.9443 41.0104 14.9443C40.7138 14.9443 40.4225 14.9907 40.1363 15.0834C39.8499 15.176 39.607 15.3014 39.4069 15.4593L38.8275 14.3366C39.131 14.1236 39.4948 13.9588 39.9189 13.8421C40.3432 13.7254 40.7794 13.667 41.2276 13.667ZM41.1034 18.2922C41.3795 18.2922 41.6241 18.2286 41.8381 18.1016C42.0519 17.9746 42.2035 17.7873 42.2932 17.5402V16.9736H41.1862C40.5242 16.9736 40.1932 17.1899 40.1932 17.6227C40.1932 17.8287 40.2742 17.9916 40.4362 18.112C40.5984 18.2321 40.8207 18.2922 41.1034 18.2922ZM51.5213 13.667C52.0385 13.667 52.5093 13.7855 52.9334 14.0224C53.3576 14.2593 53.6903 14.5923 53.9317 15.0215C54.1732 15.4507 54.2939 15.9505 54.2939 16.5204C54.2939 17.0903 54.1732 17.5899 53.9317 18.0191C53.6903 18.4483 53.3576 18.7814 52.9334 19.0183C52.5093 19.2552 52.0385 19.3737 51.5213 19.3737C50.8109 19.3737 50.2523 19.1505 49.8454 18.7042V21.2898H48.2316V13.7494H49.7729V14.388C50.1729 13.9074 50.7557 13.667 51.5213 13.667ZM51.2419 18.0552C51.6558 18.0552 51.9955 17.9162 52.261 17.6381C52.5265 17.3599 52.6593 16.9874 52.6593 16.5204C52.6593 16.0534 52.5265 15.6809 52.261 15.4027C51.9955 15.1246 51.6558 14.9855 51.2419 14.9855C50.8281 14.9855 50.4885 15.1246 50.223 15.4027C49.9575 15.6809 49.8247 16.0534 49.8247 16.5204C49.8247 16.9874 49.9575 17.3599 50.223 17.6381C50.4885 17.9162 50.8281 18.0552 51.2419 18.0552ZM60.8324 16.541C60.8324 16.5616 60.8219 16.7058 60.8014 16.9736H56.5906C56.6665 17.317 56.846 17.5883 57.1285 17.7873C57.4111 17.9866 57.7628 18.0862 58.1839 18.0862C58.4736 18.0862 58.7306 18.0432 58.9544 17.9574C59.1788 17.8715 59.387 17.7359 59.5804 17.5505L60.439 18.4775C59.915 19.075 59.1494 19.3737 58.1423 19.3737C57.5146 19.3737 56.9595 19.2519 56.4768 19.0081C55.9939 18.7643 55.6216 18.426 55.3594 17.9934C55.0974 17.5607 54.9663 17.0697 54.9663 16.5204C54.9663 15.9778 55.0957 15.4886 55.3542 15.0525C55.6129 14.6165 55.9681 14.2765 56.4199 14.0328C56.8715 13.7888 57.3767 13.667 57.9356 13.667C58.4802 13.667 58.9732 13.7838 59.4148 14.0172C59.8563 14.2507 60.203 14.5855 60.4546 15.0215C60.7061 15.4577 60.8324 15.9641 60.8324 16.541ZM57.9456 14.8826C57.58 14.8826 57.2737 14.9855 57.0249 15.1916C56.7767 15.3976 56.625 15.6791 56.5695 16.0362H59.3112C59.2563 15.6861 59.1045 15.4062 58.8563 15.1967C58.6082 14.9873 58.3046 14.8826 57.9456 14.8826ZM65.6123 16.4071C65.9426 16.5101 66.1997 16.6681 66.3825 16.8809C66.5652 17.0937 66.6566 17.3479 66.6566 17.6432C66.6566 17.9934 66.5359 18.3007 66.2944 18.5651C66.0529 18.8296 65.722 19.0338 65.301 19.1781C64.8808 19.3222 64.4049 19.3944 63.8737 19.3944C63.4394 19.3944 63.0117 19.3497 62.5912 19.2605C62.1702 19.1712 61.7802 19.0372 61.4218 18.8588L61.8561 17.7359C62.4428 18.0175 63.0909 18.1582 63.8011 18.1582C64.1806 18.1582 64.4792 18.1016 64.6963 17.9883C64.9135 17.875 65.0221 17.7152 65.0221 17.5092C65.0221 17.3307 64.9462 17.1952 64.7943 17.1024C64.6426 17.0096 64.4221 16.9634 64.1324 16.9634H62.9945V15.9641H63.9878C64.2703 15.9641 64.4874 15.9195 64.6393 15.8302C64.7911 15.741 64.8669 15.6104 64.8669 15.4388C64.8669 15.2601 64.7722 15.1228 64.5822 15.0267C64.3927 14.9306 64.1219 14.8826 63.7701 14.8826C63.2322 14.8826 62.6461 15.0095 62.0112 15.2637L61.6185 14.1511C62.3907 13.8147 63.1424 13.6465 63.8737 13.6465C64.3772 13.6465 64.827 13.7082 65.2237 13.8318C65.6201 13.9554 65.9321 14.1357 66.1599 14.3726C66.3877 14.6095 66.5019 14.8858 66.5019 15.2019C66.5019 15.4629 66.4216 15.6981 66.2637 15.9075C66.1051 16.117 65.8871 16.2834 65.6123 16.4071ZM73.4022 13.7494L70.8874 19.6313C70.6328 20.27 70.3169 20.7198 69.9416 20.9808C69.565 21.2418 69.1121 21.3722 68.5808 21.3722C68.291 21.3722 68.0044 21.3275 67.7218 21.2382C67.4398 21.149 67.2081 21.0254 67.0293 20.8674L67.6187 19.724C67.7434 19.834 67.8863 19.9197 68.0482 19.9816C68.21 20.0433 68.3699 20.0742 68.5292 20.0742C68.7498 20.0742 68.9293 20.021 69.067 19.9147C69.2054 19.808 69.3294 19.6313 69.4397 19.3841L69.4599 19.3326L67.0495 13.7494H68.7152L70.2778 17.5092L71.8494 13.7494H73.4022ZM79.1231 13.7494V19.2914H77.5083V15.0679H75.75L75.6984 16.0466C75.6703 16.7744 75.6018 17.3789 75.4915 17.8595C75.3812 18.3402 75.2017 18.7179 74.9537 18.9927C74.7056 19.2672 74.3604 19.4047 73.9191 19.4047C73.6848 19.4047 73.4055 19.3634 73.0811 19.281L73.164 17.9626C73.2743 17.9762 73.3533 17.9831 73.4022 17.9831C73.6431 17.9831 73.8239 17.8955 73.9446 17.7204C74.0654 17.5453 74.1463 17.3223 74.1881 17.0508C74.2298 16.7796 74.2599 16.4209 74.2814 15.9745L74.3636 13.7494H79.1231ZM83.6848 15.5211C84.4086 15.5281 84.9647 15.6911 85.3504 16.0104C85.7368 16.3298 85.93 16.7814 85.93 17.3651C85.93 17.9762 85.7146 18.4518 85.2839 18.7918C84.8518 19.1316 84.2474 19.3016 83.4674 19.3016L80.6745 19.2914V13.7494H82.2776V15.5211H83.6848ZM83.3232 18.1582C83.6332 18.1651 83.8708 18.0999 84.0366 17.9626C84.2023 17.8251 84.2852 17.6191 84.2852 17.3445C84.2852 17.0766 84.2037 16.8809 84.0424 16.7572C83.8799 16.6337 83.6397 16.5684 83.3232 16.5616L82.2776 16.5512V18.1582H83.3232ZM91.1026 15.0679H89.2196V19.2914H87.6166V15.0679H85.7336V13.7494H91.1026V15.0679ZM94.1233 13.667C94.9855 13.667 95.6474 13.8713 96.1101 14.2799C96.5716 14.6885 96.8026 15.3048 96.8026 16.1289V19.2914H95.2923V18.6012C94.9894 19.1162 94.4236 19.3737 93.5959 19.3737C93.1684 19.3737 92.7977 19.3016 92.4837 19.1574C92.1698 19.0132 91.9303 18.8141 91.7645 18.5599C91.5993 18.3059 91.5164 18.0175 91.5164 17.6947C91.5164 17.1796 91.7116 16.7744 92.1006 16.4791C92.4909 16.1838 93.092 16.0362 93.906 16.0362H95.1892C95.1892 15.6861 95.0821 15.4164 94.8687 15.2277C94.6546 15.0387 94.3341 14.9443 93.906 14.9443C93.6096 14.9443 93.3185 14.9907 93.032 15.0834C92.7455 15.176 92.5027 15.3014 92.3023 15.4593L91.7234 14.3366C92.0262 14.1236 92.3904 13.9588 92.8147 13.8421C93.2389 13.7254 93.6749 13.667 94.1233 13.667ZM93.9993 18.2922C94.2754 18.2922 94.5201 18.2286 94.7336 18.1016C94.9477 17.9746 95.0991 17.7873 95.1892 17.5402V16.9736H94.0822C93.4197 16.9736 93.0888 17.1899 93.0888 17.6227C93.0888 17.8287 93.1697 17.9916 93.3316 18.112C93.4941 18.2321 93.7167 18.2922 93.9993 18.2922ZM102.642 15.0679H101.003V19.2914H99.399V15.0679H97.5167V13.7494H103.13L102.642 15.0679Z" fill="white"/>
</svg>
