<svg id="cart" width="16" height="16" viewBox="0 0 16 16" fill="none" xmlns="http://www.w3.org/2000/svg">
<path id="Vector" d="M4.80444 16C4.36403 16 3.98688 15.8432 3.67299 15.5296C3.3591 15.216 3.20243 14.8395 3.20296 14.4C3.20296 13.96 3.3599 13.5832 3.67379 13.2696C3.98768 12.956 4.36457 12.7995 4.80444 12.8C5.24485 12.8 5.62199 12.9568 5.93588 13.2704C6.24977 13.584 6.40645 13.9605 6.40592 14.4C6.40592 14.84 6.24897 15.2168 5.93508 15.5304C5.62119 15.844 5.24431 16.0005 4.80444 16ZM12.8118 16C12.3714 16 11.9943 15.8432 11.6804 15.5296C11.3665 15.216 11.2098 14.8395 11.2104 14.4C11.2104 13.96 11.3673 13.5832 11.6812 13.2696C11.9951 12.956 12.372 12.7995 12.8118 12.8C13.2522 12.8 13.6294 12.9568 13.9433 13.2704C14.2572 13.584 14.4139 13.9605 14.4133 14.4C14.4133 14.84 14.2564 15.2168 13.9425 15.5304C13.6286 15.844 13.2517 16.0005 12.8118 16ZM3.36311 1.6H15.174C15.481 1.6 15.7145 1.7368 15.8747 2.0104C16.0348 2.284 16.0415 2.56053 15.8947 2.84L13.0521 7.96C12.9053 8.22667 12.7083 8.43333 12.4611 8.58C12.214 8.72667 11.9438 8.8 11.6508 8.8H5.68525L4.80444 10.4H14.4133V12H4.80444C4.20388 12 3.75013 11.7365 3.44318 11.2096C3.13623 10.6827 3.12289 10.1595 3.40314 9.64L4.48414 7.68L1.60148 1.6H0V0H2.6024L3.36311 1.6Z" />
</svg>
