<svg width="28" height="22" viewBox="0 0 28 22" fill="none" xmlns="http://www.w3.org/2000/svg">
<rect width="28" height="22" fill="#1E1E1E"/>
<g id="&#208;&#158;&#209;&#132;&#208;&#190;&#209;&#128;&#208;&#188;&#208;&#187;&#208;&#181;&#208;&#189;&#208;&#184;&#208;&#181; &#208;&#183;&#208;&#176;&#208;&#186;&#208;&#176;&#208;&#183;&#208;&#176;" clip-path="url(#clip0_205_1979)">
<rect width="1920" height="2445" transform="translate(-236 -784)" fill="white"/>
<g id="Group 5020">
<rect id="Rectangle 387" x="-86" y="-144" width="1146" height="370" fill="#F8F7FB"/>
</g>
<g id="Group 5025">
<g id="Group 5024">
<g id="Group 5022">
<rect id="Rectangle 401" x="-25.5" y="-28.5" width="331" height="79" stroke="#1F222A"/>
<g id="noun-delivery-1903114 1" clip-path="url(#clip1_205_1979)">
<g id="Group">
<path id="Vector" d="M19.0778 0.749834V0.750049H19.0422H19.0065H18.9709H18.9353H18.8997H18.8641H18.8285H18.7929H18.7572H18.7216H18.686H18.6504H18.6148H18.5792H18.5436H18.5079H18.4723H18.4367H18.4011H18.3655H18.3299H18.2942H18.2586H18.223H18.1874H18.1518H18.1161H18.0805H18.0449H18.0093H17.9737H17.938H17.9024H17.8668H17.8312H17.7956H17.7599H17.7243H17.6887H17.6531H17.6174H17.5818H17.5462H17.5106H17.475H17.4393H17.4037H17.3681H17.3325H17.2968H17.2612H17.2256H17.19H17.1543H17.1187H17.0831H17.0475H17.0118H16.9762H16.9406H16.9049H16.8693H16.8337H16.7981H16.7624H16.7268H16.6912H16.6555H16.6199H16.5843H16.5487H16.513H16.4774H16.4418H16.4061H16.3705H16.3349H16.2992H16.2636H16.228H16.1924H16.1567H16.1211H16.0855H16.0498H16.0142H15.9786H15.9429H15.9073H15.8717H15.836H15.8004H15.7648H15.7291H15.6935H15.6579H15.6222H15.5866H15.551H15.5153H15.4797H15.444H15.4084H15.3728H15.3371H15.3015H15.2659H15.2302H15.1946H15.159H15.1233H15.0877H15.052H15.0164H14.9808H14.9451H14.9095H14.8738H14.8382H14.8026H14.7669H14.7313H14.6957H14.66H14.6244H14.5887H14.5531H14.5175H14.4818H14.4462H14.4105H14.3749H14.3393H14.3036H14.268H14.2323H14.1967H14.161H14.1254H14.0898H14.0541H14.0185H13.9828H13.9472H13.9115H13.8759H13.8403H13.8046H13.769H13.7333H13.6977H13.662H13.6264H13.5908H13.5551H13.5195H13.4838H13.4482H13.4125H13.3769H13.3412H13.3056H13.2699H13.2343H13.1987H13.163H13.1274H13.0917H13.0561H13.0204H12.9848H12.9491H12.9135H12.8778H12.8422H12.8065H12.7709H12.7353H12.6996H12.664H12.6283H12.5927H12.557H12.5214H12.4857H12.4501H12.4144H12.3788H12.3431H12.3075H12.2718H12.2362H12.2005H12.1649H12.1292H12.0936H12.0579H12.0223H11.9866H11.951H11.9153H11.8797H11.844H11.8084H11.7727H11.7371H11.7014H11.6658H11.6301H11.5945H11.5588H11.5232H11.4875H11.4519H11.4162H11.3806H11.3449H11.3093H11.2736H11.238H11.2023H11.1667H11.131H11.0954H11.0597H11.0241H10.9884H10.9528H10.9171H10.8815H10.8458H10.8101H10.7745H10.7388H10.7032H10.6675H10.6319H10.5962H10.5606H10.5249H10.4893H10.4536H10.418H10.3823H10.3467H10.311H10.2754H10.2397H10.204H10.1684H10.1327H10.0971H10.0614H10.0258H9.99013H9.95447H9.91882H9.88317H9.84751H9.81186H9.7762H9.74055H9.7049H9.66924H9.63359H9.59793H9.56228H9.52662H9.49097H9.45531H9.41966H9.38401H9.34835H9.3127H9.27704H9.24139H9.20573H9.17008H9.13442H9.09877H9.06311H9.02746H8.99181H8.95615H8.9205H8.88484H8.84919H8.81353H8.77788H8.74222H8.70657H8.67091H8.63526H8.5996H8.56395H8.52829H8.49264H8.45698H8.42133H8.38567H8.35002H8.31436H8.27871H8.24305H8.2074H8.17174H8.13609H8.10043H8.06478H8.02912H7.99347H7.95781H7.92216H7.8865H7.85085H7.81519H7.77954H7.74388H7.70823H7.67257H7.63692H7.60126H7.56561H7.52995H7.4943H7.45864H7.42299H7.38733H7.35168H7.31602H7.28037H7.24471H7.20906H7.1734H7.13775H7.10209H7.06644H7.03078H6.99513H6.95947H6.92382H6.88816H6.85251H6.81685H6.7812H6.74555H6.70989H6.67424H6.63858H6.60293H6.56727H6.53162H6.49597H6.46031H6.42466H6.389H6.35335H6.3177H6.28204H6.24639H6.21073H6.17508H6.13943H6.10377H6.06812H6.03246H5.99681H5.96116H5.9255H5.88985H5.8542H5.81854H5.78289H5.74724H5.71158H5.67593H5.64028H5.60463H5.56897H5.53332H5.49767H5.46202H5.42636H5.39071H5.35506H5.3194H5.28375H5.2481H5.21245H5.1768H5.14114H5.10549H5.06984H5.03419H4.99854H4.96288H4.92723H4.89158H4.85593H4.82028H4.78463H4.74898H4.71333H4.67767H4.64202H4.60637H4.57072H4.53507H4.49942H4.46377H4.42812H4.39247H4.35682H4.32117H4.28552H4.24987H4.21422H4.17857H4.14292H4.10727H4.07162H4.03597H4.00032H3.96467H3.92902H3.89337H3.85773H3.82208H3.78643H3.75078H3.71513H3.67948H3.64384H3.60819H3.57254H3.53689H3.50124H3.4656H3.42995H3.3943H3.35865H3.32301H3.28736H3.25171H3.21606H3.18042H3.14477H3.10913H3.07348H3.03783H3.00219H2.96654H2.93089H2.89525H2.8596H2.82396H2.78831H2.75267H2.71702H2.68138H2.64573H2.61009H2.57444H2.5388H2.50316H2.46751H2.43187H2.39622H2.36058H2.32494H2.28929H2.25365H2.21801H2.18237H2.14672H2.11108H2.07544H2.03979H2.00415H1.96851H1.93287H1.89723H1.86159H1.82594H1.7903H1.75466H1.71902H1.68338H1.64774H1.6121H1.57646H1.54082H1.50518H1.46954H1.4339H1.39826H1.36262H1.32698H1.29134H1.2557H1.22007H1.18443H1.14879H1.11315H1.07751H1.04188H1.00624H0.970602H0.934965H0.899328H0.863691H0.828049C0.4727 0.750084 0.150816 1.06626 0.150782 1.41823V17.491C0.150816 17.8429 0.4727 18.1591 0.828054 18.1591H2.72684C3.05077 19.9103 4.60721 21.25 6.47351 21.25C8.33977 21.25 9.89739 19.9103 10.2202 18.1591H17.7814C18.1042 19.9103 19.6618 21.25 21.5281 21.25C23.3943 21.25 24.9508 19.9103 25.2747 18.1591H27.1735C27.5289 18.1591 27.8507 17.8429 27.8508 17.491V10.691V10.691H27.8008C27.801 10.6083 27.7843 10.5257 27.7518 10.4495L19.0778 0.749834ZM19.0778 0.749834L19.0824 0.750263C19.4159 0.781237 19.6976 1.08658 19.6962 1.41823M19.0778 0.749834L19.6962 1.41823M24.978 4.76823C25.2425 4.7679 25.4986 4.93442 25.6022 5.17516L25.6025 5.17566L27.7978 10.4299C27.7978 10.4299 27.7978 10.43 27.7978 10.43L24.9781 4.81823M24.978 4.76823L24.9781 4.81823M24.978 4.76823H24.9781V4.81823M24.978 4.76823H19.6962M24.9781 4.81823H19.6962V4.76823M19.6962 4.76823H19.6462V1.41823M19.6962 4.76823L19.6962 1.41845M19.6962 1.41845L19.6462 1.41823M19.6962 1.41845L19.6962 1.41823M19.6962 1.41845C19.6962 1.41838 19.6962 1.4183 19.6962 1.41823M19.6462 1.41823C19.6476 1.113 19.3861 0.82869 19.0778 0.800049M19.6462 1.41823L19.0778 0.800049M19.0778 0.800049H0.828054C0.499624 0.800081 0.200813 1.09456 0.200781 1.41823V17.491C0.200813 17.8146 0.499624 18.1091 0.828054 18.1091H2.76868C3.07141 19.8567 4.61698 21.2 6.47351 21.2C8.33004 21.2 9.87678 19.8567 10.1783 18.1091H17.8232C18.1248 19.8567 19.6715 21.2 21.5281 21.2C23.3846 21.2 24.9302 19.8567 25.2329 18.1091H27.1735C27.5019 18.1091 27.8007 17.8146 27.8008 17.491L19.0778 0.800049ZM18.3417 2.08641H1.50533V16.8228H2.72683C3.05076 15.0705 4.60722 13.7319 6.47351 13.7319C8.33976 13.7319 9.8974 15.0705 10.2202 16.8228H17.7813C17.874 16.3192 18.0663 15.8514 18.3417 15.4377V2.08641ZM26.1672 10.0228L24.5234 6.10459H19.6962V10.0228H26.1672ZM26.4962 11.3591H19.6962V14.1989C20.2404 13.9022 20.8653 13.7319 21.5281 13.7319C23.3943 13.7319 24.9508 15.0705 25.2747 16.8228H26.4962V11.3591ZM21.5281 15.0682C20.1618 15.0682 19.069 16.1463 19.069 17.491C19.069 18.8356 20.1618 19.9137 21.5281 19.9137C22.8943 19.9137 23.9871 18.8356 23.9871 17.491C23.9871 16.1463 22.8943 15.0682 21.5281 15.0682ZM6.47351 15.0682C5.10727 15.0682 4.01442 16.1463 4.01442 17.491C4.01442 18.8356 5.10727 19.9137 6.47351 19.9137C7.83975 19.9137 8.9326 18.8356 8.9326 17.491C8.9326 16.1463 7.83975 15.0682 6.47351 15.0682Z" fill="#1F222A" stroke="#1F222A" stroke-width="0.1"/>
</g>
</g>
</g>
</g>
</g>
</g>
<defs>
<clipPath id="clip0_205_1979">
<rect width="1920" height="2445" fill="white" transform="translate(-236 -784)"/>
</clipPath>
<clipPath id="clip1_205_1979">
<rect width="30" height="30" fill="white" transform="matrix(-1 0 0 1 29 -4)"/>
</clipPath>
</defs>
</svg>
