<svg width="25" height="19" viewBox="0 0 25 19" fill="none" xmlns="http://www.w3.org/2000/svg">
<path d="M16.7308 0.949785V0.95H16.7011H16.6715H16.6418H16.6121H16.5824H16.5528H16.5231H16.4934H16.4637H16.434H16.4044H16.3747H16.345H16.3153H16.2856H16.256H16.2263H16.1966H16.1669H16.1372H16.1076H16.0779H16.0482H16.0185H15.9888H15.9592H15.9295H15.8998H15.8701H15.8404H15.8107H15.7811H15.7514H15.7217H15.692H15.6623H15.6326H15.6029H15.5733H15.5436H15.5139H15.4842H15.4545H15.4248H15.3951H15.3655H15.3358H15.3061H15.2764H15.2467H15.217H15.1873H15.1576H15.128H15.0983H15.0686H15.0389H15.0092H14.9795H14.9498H14.9201H14.8904H14.8608H14.8311H14.8014H14.7717H14.742H14.7123H14.6826H14.6529H14.6232H14.5935H14.5638H14.5342H14.5045H14.4748H14.4451H14.4154H14.3857H14.356H14.3263H14.2966H14.2669H14.2372H14.2075H14.1778H14.1481H14.1185H14.0888H14.0591H14.0294H13.9997H13.97H13.9403H13.9106H13.8809H13.8512H13.8215H13.7918H13.7621H13.7324H13.7027H13.673H13.6433H13.6136H13.5839H13.5542H13.5245H13.4948H13.4651H13.4354H13.4057H13.376H13.3464H13.3167H13.287H13.2573H13.2276H13.1979H13.1682H13.1385H13.1088H13.0791H13.0494H13.0197H12.99H12.9603H12.9306H12.9009H12.8712H12.8415H12.8118H12.7821H12.7524H12.7227H12.693H12.6633H12.6336H12.6038H12.5741H12.5444H12.5147H12.485H12.4553H12.4256H12.3959H12.3662H12.3365H12.3068H12.2771H12.2474H12.2177H12.188H12.1583H12.1286H12.0989H12.0692H12.0395H12.0098H11.9801H11.9504H11.9207H11.891H11.8613H11.8316H11.8019H11.7722H11.7424H11.7127H11.683H11.6533H11.6236H11.5939H11.5642H11.5345H11.5048H11.4751H11.4454H11.4157H11.386H11.3563H11.3266H11.2969H11.2672H11.2374H11.2077H11.178H11.1483H11.1186H11.0889H11.0592H11.0295H10.9998H10.9701H10.9404H10.9107H10.881H10.8513H10.8215H10.7918H10.7621H10.7324H10.7027H10.673H10.6433H10.6136H10.5839H10.5542H10.5245H10.4948H10.465H10.4353H10.4056H10.3759H10.3462H10.3165H10.2868H10.2571H10.2274H10.1977H10.1679H10.1382H10.1085H10.0788H10.0491H10.0194H9.98969H9.95998H9.93027H9.90056H9.87085H9.84114H9.81143H9.78172H9.75201H9.7223H9.69259H9.66288H9.63316H9.60345H9.57374H9.54403H9.51432H9.48461H9.4549H9.42519H9.39548H9.36577H9.33605H9.30634H9.27663H9.24692H9.21721H9.1875H9.15779H9.12808H9.09836H9.06865H9.03894H9.00923H8.97952H8.94981H8.92009H8.89038H8.86067H8.83096H8.80125H8.77153H8.74182H8.71211H8.6824H8.65269H8.62297H8.59326H8.56355H8.53384H8.50413H8.47441H8.4447H8.41499H8.38528H8.35557H8.32585H8.29614H8.26643H8.23672H8.207H8.17729H8.14758H8.11787H8.08815H8.05844H8.02873H7.99902H7.9693H7.93959H7.90988H7.88017H7.85045H7.82074H7.79103H7.76132H7.7316H7.70189H7.67218H7.64247H7.61275H7.58304H7.55333H7.52361H7.4939H7.46419H7.43448H7.40477H7.37505H7.34534H7.31563H7.28592H7.2562H7.22649H7.19678H7.16706H7.13735H7.10764H7.07793H7.04822H7.0185H6.98879H6.95908H6.92937H6.89965H6.86994H6.84023H6.81052H6.7808H6.75109H6.72138H6.69167H6.66195H6.63224H6.60253H6.57282H6.54311H6.51339H6.48368H6.45397H6.42426H6.39455H6.36483H6.33512H6.30541H6.2757H6.24599H6.21627H6.18656H6.15685H6.12714H6.09743H6.06772H6.038H6.00829H5.97858H5.94887H5.91916H5.88945H5.85974H5.83002H5.80031H5.7706H5.74089H5.71118H5.68147H5.65176H5.62205H5.59233H5.56262H5.53291H5.5032H5.47349H5.44378H5.41407H5.38436H5.35465H5.32494H5.29523H5.26552H5.23581H5.2061H5.17639H5.14668H5.11697H5.08726H5.05755H5.02784H4.99813H4.96842H4.93871H4.909H4.87929H4.84958H4.81987H4.79016H4.76045H4.73074H4.70103H4.67132H4.64161H4.61191H4.5822H4.55249H4.52278H4.49307H4.46336H4.43365H4.40395H4.37424H4.34453H4.31482H4.28511H4.25541H4.2257H4.19599H4.16628H4.13657H4.10687H4.07716H4.04745H4.01774H3.98804H3.95833H3.92862H3.89892H3.86921H3.8395H3.8098H3.78009H3.75038H3.72068H3.69097H3.66126H3.63156H3.60185H3.57215H3.54244H3.51274H3.48303H3.45332H3.42362H3.39391H3.36421H3.3345H3.3048H3.27509H3.24539H3.21568H3.18598H3.15627H3.12657H3.09687H3.06716H3.03746H3.00776H2.97805H2.94835H2.91864H2.88894H2.85924H2.82953H2.79983H2.77013H2.74043H2.71072H2.68102H2.65132H2.62162H2.59191H2.56221H2.53251H2.50281H2.47311H2.44341H2.4137H2.384H2.3543H2.3246H2.2949H2.2652H2.2355H2.2058H2.1761H2.1464H2.1167H2.087H2.0573H2.0276H1.9979H1.9682H1.9385H1.9088H1.8791H1.8494H1.8197H1.79001H1.76031H1.73061H1.70091H1.67121H1.64152H1.61182H1.58212H1.55242H1.52272C1.22211 0.95003 0.950029 1.21713 0.949999 1.51515V14.9091C0.950029 15.2071 1.22211 15.4742 1.52273 15.4742H3.09812C3.37156 16.9341 4.6704 18.05 6.22727 18.05C7.7841 18.05 9.08393 16.9342 9.35645 15.4742H15.6435C15.9161 16.9342 17.2159 18.05 18.7727 18.05C20.3296 18.05 21.6284 16.9341 21.9019 15.4742H23.4773C23.7779 15.4742 24.05 15.2071 24.05 14.9091V9.2425V9.24242H24C24.0002 9.17356 23.9862 9.10468 23.9592 9.04119L16.7308 0.949785ZM16.7308 0.949785L16.7354 0.950214C17.0176 0.976418 17.2557 1.23444 17.2545 1.51526M16.7308 0.949785L17.2545 1.51526M21.6477 4.29848C21.8713 4.29821 22.0878 4.4389 22.1755 4.64263L22.1755 4.64263L22.1757 4.64313L24.0052 9.02158C24.0052 9.02163 24.0052 9.02168 24.0052 9.02174L21.6477 4.34848M21.6477 4.29848L21.6477 4.34848M21.6477 4.29848H21.6477V4.34848M21.6477 4.29848H17.2545M21.6477 4.34848H17.2545V4.29848M17.2545 4.29848H17.2045V1.51515M17.2545 4.29848L17.2545 1.51537L17.2045 1.51515M17.2045 1.51515H17.2545V1.51526M17.2045 1.51515C17.2057 1.26079 16.9878 1.02387 16.7308 1H1.52273C1.24903 1.00003 1.00003 1.24543 0.999998 1.51515V14.9091C1.00003 15.1788 1.24903 15.4242 1.52273 15.4242H3.13991C3.39219 16.8806 4.68016 18 6.22727 18C7.77438 18 9.06333 16.8806 9.31463 15.4242H15.6854C15.9367 16.8806 17.2256 18 18.7727 18C20.3198 18 21.6078 16.8806 21.8601 15.4242H23.4773C23.751 15.4242 24 15.1788 24 14.9091L17.2545 1.51526M16.1091 2.0803H2.09545V14.3439H3.09812C3.37155 12.8831 4.67041 11.7682 6.22727 11.7682C7.7841 11.7682 9.08394 12.8831 9.35645 14.3439H15.6435C15.7213 13.9266 15.881 13.5388 16.1091 13.1955V2.0803ZM22.6261 8.67727L21.2633 5.42879H17.2545V8.67727H22.6261ZM22.9045 9.80758H17.2545V12.1517C17.7063 11.9079 18.224 11.7682 18.7727 11.7682C20.3296 11.7682 21.6284 12.8831 21.9019 14.3439H22.9045V9.80758ZM18.7727 12.8985C17.6387 12.8985 16.7318 13.7933 16.7318 14.9091C16.7318 16.0249 17.6387 16.9197 18.7727 16.9197C19.9068 16.9197 20.8136 16.0249 20.8136 14.9091C20.8136 13.7933 19.9068 12.8985 18.7727 12.8985ZM6.22727 12.8985C5.09323 12.8985 4.18636 13.7933 4.18636 14.9091C4.18636 16.0249 5.09322 16.9197 6.22727 16.9197C7.36131 16.9197 8.26818 16.0249 8.26818 14.9091C8.26818 13.7933 7.36131 12.8985 6.22727 12.8985Z" fill="#938DAC" stroke="#938DAC" stroke-width="0.1"/>
</svg>
