<svg width="30" height="30" viewBox="0 0 30 30" fill="none" xmlns="http://www.w3.org/2000/svg">
<rect width="30" height="30" fill="#1E1E1E"/>
<g id="&#208;&#158;&#209;&#132;&#208;&#190;&#209;&#128;&#208;&#188;&#208;&#187;&#208;&#181;&#208;&#189;&#208;&#184;&#208;&#181; &#208;&#183;&#208;&#176;&#208;&#186;&#208;&#176;&#208;&#183;&#208;&#176;" clip-path="url(#clip0_205_1979)">
<rect width="1920" height="2445" transform="translate(-235 -1160)" fill="white"/>
<g id="Group 5031">
<rect id="Rectangle 388" x="-85" y="-140" width="1146" height="245" fill="#F8F7FB"/>
<g id="Group 5030">
<g id="Group 5027">
<rect id="Rectangle 401" x="-24.5" y="-24.5" width="331" height="79" stroke="#1F222A"/>
<g id="Group 5026">
<g id="solar:card-outline">
<g id="Vector">
<mask id="path-3-inside-1_205_1979" fill="white">
<path fill-rule="evenodd" clip-rule="evenodd" d="M12.7052 5H17.2952C19.3469 5 20.9722 5 22.2436 5.17486C23.5519 5.35543 24.6112 5.73486 25.4473 6.58971C26.2822 7.44571 26.6528 8.53029 26.8292 9.86971C26.9297 10.6389 26.971 11.5337 26.9877 12.5703C27.0023 12.6572 27.0038 12.7458 26.9922 12.8331C27 13.48 27 14.1794 27 14.936V15.064C27 17.1646 27 18.8286 26.8292 20.1303C26.6528 21.4697 26.2822 22.5543 25.4473 23.4103C24.6112 24.2651 23.5519 24.6446 22.2436 24.8251C20.9711 25 19.3469 25 17.2952 25H12.7052C10.6535 25 9.0282 25 7.75678 24.8251C6.44852 24.6446 5.38919 24.2651 4.55311 23.4103C3.71815 22.5543 3.34755 21.4697 3.17118 20.1303C3.00039 18.8274 3.00039 17.1646 3.00039 15.064V14.936C3.00039 14.1794 3.00039 13.48 3.00821 12.8331C2.99624 12.7459 2.99737 12.6572 3.01155 12.5703C3.02941 11.5337 3.07072 10.6389 3.17118 9.86971C3.34755 8.53029 3.71815 7.44571 4.55311 6.58971C5.38919 5.73486 6.44852 5.35543 7.75678 5.17486C9.02932 5 10.6535 5 12.7052 5ZM4.67702 13.5714C4.67478 14.0149 4.67478 14.4903 4.67478 15C4.67478 17.1794 4.67702 18.7269 4.83106 19.9029C4.98176 21.0514 5.26529 21.7143 5.73746 22.1977C6.20964 22.6811 6.85707 22.9714 7.98003 23.1257C9.12755 23.2834 10.639 23.2857 12.7677 23.2857H17.2327C19.3614 23.2857 20.874 23.2834 22.0215 23.1257C23.1433 22.9714 23.7908 22.6811 24.2629 22.1977C24.7351 21.7143 25.0186 21.0514 25.1693 19.9017C25.3234 18.7269 25.3256 17.1794 25.3256 15C25.3256 14.4903 25.3256 14.0149 25.3234 13.5714H4.67702ZM25.2966 11.8571H4.70381C4.72613 11.1863 4.76408 10.6069 4.83106 10.0971C4.98176 8.94857 5.26529 8.28571 5.73746 7.80229C6.20964 7.31886 6.85707 7.02857 7.98003 6.87429C9.12755 6.71657 10.639 6.71429 12.7677 6.71429H17.2327C19.3614 6.71429 20.874 6.71657 22.0215 6.87429C23.1433 7.02857 23.7908 7.31886 24.2629 7.80229C24.7351 8.28571 25.0186 8.94857 25.1693 10.0983C25.2363 10.6069 25.2743 11.1863 25.2966 11.8571ZM7.46544 19.5714C7.46544 19.3441 7.55364 19.1261 7.71064 18.9653C7.86765 18.8046 8.08059 18.7143 8.30263 18.7143H12.7677C12.9897 18.7143 13.2027 18.8046 13.3597 18.9653C13.5167 19.1261 13.6049 19.3441 13.6049 19.5714C13.6049 19.7988 13.5167 20.0168 13.3597 20.1775C13.2027 20.3383 12.9897 20.4286 12.7677 20.4286H8.30263C8.08059 20.4286 7.86765 20.3383 7.71064 20.1775C7.55364 20.0168 7.46544 19.7988 7.46544 19.5714ZM14.7211 19.5714C14.7211 19.3441 14.8093 19.1261 14.9663 18.9653C15.1233 18.8046 15.3363 18.7143 15.5583 18.7143H17.2327C17.4548 18.7143 17.6677 18.8046 17.8247 18.9653C17.9817 19.1261 18.0699 19.3441 18.0699 19.5714C18.0699 19.7988 17.9817 20.0168 17.8247 20.1775C17.6677 20.3383 17.4548 20.4286 17.2327 20.4286H15.5583C15.3363 20.4286 15.1233 20.3383 14.9663 20.1775C14.8093 20.0168 14.7211 19.7988 14.7211 19.5714Z"/>
</mask>
<path fill-rule="evenodd" clip-rule="evenodd" d="M12.7052 5H17.2952C19.3469 5 20.9722 5 22.2436 5.17486C23.5519 5.35543 24.6112 5.73486 25.4473 6.58971C26.2822 7.44571 26.6528 8.53029 26.8292 9.86971C26.9297 10.6389 26.971 11.5337 26.9877 12.5703C27.0023 12.6572 27.0038 12.7458 26.9922 12.8331C27 13.48 27 14.1794 27 14.936V15.064C27 17.1646 27 18.8286 26.8292 20.1303C26.6528 21.4697 26.2822 22.5543 25.4473 23.4103C24.6112 24.2651 23.5519 24.6446 22.2436 24.8251C20.9711 25 19.3469 25 17.2952 25H12.7052C10.6535 25 9.0282 25 7.75678 24.8251C6.44852 24.6446 5.38919 24.2651 4.55311 23.4103C3.71815 22.5543 3.34755 21.4697 3.17118 20.1303C3.00039 18.8274 3.00039 17.1646 3.00039 15.064V14.936C3.00039 14.1794 3.00039 13.48 3.00821 12.8331C2.99624 12.7459 2.99737 12.6572 3.01155 12.5703C3.02941 11.5337 3.07072 10.6389 3.17118 9.86971C3.34755 8.53029 3.71815 7.44571 4.55311 6.58971C5.38919 5.73486 6.44852 5.35543 7.75678 5.17486C9.02932 5 10.6535 5 12.7052 5ZM4.67702 13.5714C4.67478 14.0149 4.67478 14.4903 4.67478 15C4.67478 17.1794 4.67702 18.7269 4.83106 19.9029C4.98176 21.0514 5.26529 21.7143 5.73746 22.1977C6.20964 22.6811 6.85707 22.9714 7.98003 23.1257C9.12755 23.2834 10.639 23.2857 12.7677 23.2857H17.2327C19.3614 23.2857 20.874 23.2834 22.0215 23.1257C23.1433 22.9714 23.7908 22.6811 24.2629 22.1977C24.7351 21.7143 25.0186 21.0514 25.1693 19.9017C25.3234 18.7269 25.3256 17.1794 25.3256 15C25.3256 14.4903 25.3256 14.0149 25.3234 13.5714H4.67702ZM25.2966 11.8571H4.70381C4.72613 11.1863 4.76408 10.6069 4.83106 10.0971C4.98176 8.94857 5.26529 8.28571 5.73746 7.80229C6.20964 7.31886 6.85707 7.02857 7.98003 6.87429C9.12755 6.71657 10.639 6.71429 12.7677 6.71429H17.2327C19.3614 6.71429 20.874 6.71657 22.0215 6.87429C23.1433 7.02857 23.7908 7.31886 24.2629 7.80229C24.7351 8.28571 25.0186 8.94857 25.1693 10.0983C25.2363 10.6069 25.2743 11.1863 25.2966 11.8571ZM7.46544 19.5714C7.46544 19.3441 7.55364 19.1261 7.71064 18.9653C7.86765 18.8046 8.08059 18.7143 8.30263 18.7143H12.7677C12.9897 18.7143 13.2027 18.8046 13.3597 18.9653C13.5167 19.1261 13.6049 19.3441 13.6049 19.5714C13.6049 19.7988 13.5167 20.0168 13.3597 20.1775C13.2027 20.3383 12.9897 20.4286 12.7677 20.4286H8.30263C8.08059 20.4286 7.86765 20.3383 7.71064 20.1775C7.55364 20.0168 7.46544 19.7988 7.46544 19.5714ZM14.7211 19.5714C14.7211 19.3441 14.8093 19.1261 14.9663 18.9653C15.1233 18.8046 15.3363 18.7143 15.5583 18.7143H17.2327C17.4548 18.7143 17.6677 18.8046 17.8247 18.9653C17.9817 19.1261 18.0699 19.3441 18.0699 19.5714C18.0699 19.7988 17.9817 20.0168 17.8247 20.1775C17.6677 20.3383 17.4548 20.4286 17.2327 20.4286H15.5583C15.3363 20.4286 15.1233 20.3383 14.9663 20.1775C14.8093 20.0168 14.7211 19.7988 14.7211 19.5714Z" fill="#1F222A" stroke="#F8F7FB" stroke-width="0.3" mask="url(#path-3-inside-1_205_1979)"/>
</g>
</g>
</g>
</g>
</g>
</g>
</g>
<defs>
<clipPath id="clip0_205_1979">
<rect width="1920" height="2445" fill="white" transform="translate(-235 -1160)"/>
</clipPath>
</defs>
</svg>
