<svg width="16" height="16" viewBox="0 0 16 16" fill="none" id="telegram" xmlns="http://www.w3.org/2000/svg">
<path id="Vector" fill-rule="evenodd" clip-rule="evenodd" d="M12.1846 1.95331C12.3493 1.88397 12.5297 1.86006 12.7068 1.88405C12.8839 1.90805 13.0514 1.97909 13.1917 2.08977C13.3321 2.20044 13.4402 2.34672 13.5048 2.51337C13.5695 2.68001 13.5883 2.86094 13.5593 3.03731L12.0473 12.2086C11.9006 13.0933 10.9299 13.6006 10.1186 13.16C9.43993 12.7913 8.43193 12.2233 7.52527 11.6306C7.07193 11.334 5.68327 10.384 5.85393 9.70798C6.0006 9.12998 8.33393 6.95798 9.66726 5.66664C10.1906 5.15931 9.95193 4.86664 9.33393 5.33331C7.7986 6.49198 5.33527 8.25398 4.5206 8.74998C3.80193 9.18731 3.42726 9.26198 2.97926 9.18731C2.16193 9.05131 1.40393 8.84064 0.785265 8.58398C-0.0507349 8.23731 -0.0100682 7.08798 0.784598 6.75331L12.1846 1.95331Z" fill="white"/>
</svg>
