<svg width="16" height="16" viewBox="0 0 16 16" fill="none" id="vk" xmlns="http://www.w3.org/2000/svg">
<path id="Vector" d="M14.3353 12.2536H12.8147C12.2393 12.2536 12.066 11.7876 11.0347 10.7556C10.1333 9.88691 9.75267 9.7789 9.52467 9.7789C9.20933 9.7789 9.12333 9.86557 9.12333 10.2996V11.6676C9.12333 12.0376 9.00333 12.2542 8.03667 12.2542C7.09886 12.1912 6.18944 11.9063 5.38331 11.423C4.57718 10.9397 3.89742 10.2718 3.4 9.47424C2.21892 8.00425 1.39714 6.27896 1 4.43557C1 4.20757 1.08667 4.0009 1.52133 4.0009H3.04133C3.432 4.0009 3.57267 4.1749 3.726 4.5769C4.464 6.7489 5.72333 8.63824 6.23467 8.63824C6.43067 8.63824 6.516 8.55157 6.516 8.0629V5.82557C6.45133 4.8049 5.90933 4.7189 5.90933 4.34957C5.91619 4.25213 5.96076 4.1612 6.03358 4.0961C6.1064 4.031 6.20174 3.99685 6.29933 4.0009H8.68867C9.01533 4.0009 9.12333 4.16357 9.12333 4.55424V7.57424C9.12333 7.90024 9.26333 8.00824 9.362 8.00824C9.558 8.00824 9.70867 7.90024 10.068 7.54157C10.8382 6.60223 11.4675 5.55568 11.936 4.4349C11.984 4.30034 12.0746 4.18515 12.1941 4.10692C12.3137 4.02868 12.4555 3.99168 12.598 4.00157H14.1187C14.5747 4.00157 14.6713 4.22957 14.5747 4.5549C14.0216 5.79385 13.3372 6.96991 12.5333 8.0629C12.3693 8.3129 12.304 8.4429 12.5333 8.73624C12.684 8.96424 13.2173 9.40957 13.5753 9.8329C14.0967 10.3529 14.5293 10.9542 14.8567 11.6129C14.9873 12.0369 14.7693 12.2536 14.3353 12.2536Z" />
</svg>
